<?xml version="1.0" standalone="no"?>
<!DOCTYPE svg PUBLIC "-//W3C//DTD SVG 20010904//EN"
 "http://www.w3.org/TR/2001/REC-SVG-20010904/DTD/svg10.dtd">
<svg version="1.0" xmlns="http://www.w3.org/2000/svg"
 width="552.000000pt" height="452.000000pt" viewBox="0 0 552.000000 452.000000"
 preserveAspectRatio="xMidYMid meet">

<g transform="translate(0.000000,452.000000) scale(0.100000,-0.100000)"
fill="#000000" stroke="none">
<path fill="#CBD5E1" d="M2665 4034 c-44 -8 -129 -28 -190 -45 -80 -22 -138 -32 -214 -34
-227 -9 -403 -64 -597 -186 -39 -25 -73 -39 -95 -39 -101 -1 -238 -63 -336
-152 -40 -37 -107 -84 -163 -113 -130 -69 -233 -171 -289 -288 -23 -46 -41
-97 -41 -114 0 -30 -26 -63 -49 -63 -18 0 -100 -44 -148 -79 -71 -52 -86 -97
-84 -253 l1 -58 654 0 654 0 7 33 c16 77 65 240 76 253 16 19 43 18 62 -3 8
-10 39 -107 68 -215 29 -109 55 -198 58 -198 3 0 25 100 49 223 101 528 121
627 127 637 10 17 63 12 74 -7 5 -10 42 -220 82 -466 51 -308 76 -440 80 -420
4 15 21 147 39 293 69 587 121 1006 126 1022 3 10 17 21 31 24 30 8 63 -23 63
-60 0 -23 48 -605 79 -951 11 -121 32 -368 47 -550 15 -181 30 -333 33 -337 6
-7 20 100 106 832 20 168 41 322 46 342 16 63 72 62 88 -1 5 -20 28 -148 51
-286 92 -562 102 -621 109 -640 5 -13 22 51 50 200 24 121 58 298 77 393 18
95 36 177 39 182 9 14 61 12 72 -2 6 -7 17 -40 26 -73 58 -220 100 -365 107
-365 4 0 13 25 20 56 8 31 20 63 28 70 11 12 120 14 638 14 l625 0 -22 40
c-13 23 -44 54 -71 71 -26 17 -48 34 -49 38 0 3 -2 25 -4 48 -4 53 -56 148
-136 248 -60 74 -145 153 -268 250 -45 35 -81 77 -127 146 -63 95 -136 172
-220 230 -74 50 -205 108 -283 125 -50 10 -86 24 -110 43 -102 80 -235 122
-396 126 -99 2 -129 6 -170 25 -112 49 -271 62 -430 34z"/>
<path fill="#CBD5E1" d="M2612 2968 c-18 -150 -51 -418 -72 -596 -21 -178 -44 -330 -51 -338
-15 -18 -53 -18 -68 -1 -6 8 -45 223 -86 478 -42 255 -79 473 -84 484 -5 14
-19 -41 -46 -180 -96 -505 -114 -590 -132 -602 -45 -34 -64 -9 -102 139 -18
68 -45 168 -61 223 l-28 100 -21 -72 c-12 -40 -27 -76 -34 -80 -7 -4 -316 -8
-687 -8 l-675 0 -3 -45 c-6 -74 12 -114 74 -167 58 -50 87 -94 99 -153 10 -49
29 -76 76 -105 53 -34 79 -79 79 -136 0 -73 26 -142 85 -221 29 -40 88 -123
129 -183 44 -65 89 -118 108 -129 46 -28 125 -25 238 9 138 42 213 40 354 -10
96 -34 115 -37 172 -32 35 4 73 11 84 17 15 8 48 8 121 -2 106 -13 101 -13
264 33 23 7 57 9 77 5 32 -6 41 -15 72 -70 62 -111 110 -145 266 -188 84 -24
220 -29 284 -10 33 10 49 8 115 -15 72 -24 82 -25 201 -17 235 15 295 11 395
-24 108 -39 134 -39 189 -7 55 32 151 65 190 65 17 0 60 -9 94 -20 114 -36
215 -22 340 46 52 28 70 33 101 28 83 -13 194 43 246 126 47 75 70 221 54 353
-10 83 -9 92 12 140 18 40 24 73 25 137 1 71 6 93 28 134 19 35 26 64 26 102
0 64 -10 93 -56 160 -27 39 -37 65 -41 110 -3 32 -10 62 -15 65 -5 3 -275 5
-601 4 l-592 -2 -35 -129 c-20 -71 -39 -137 -42 -146 -9 -21 -60 -25 -76 -5
-5 6 -34 103 -63 215 -29 111 -56 202 -59 202 -3 0 -15 -55 -28 -122 -69 -383
-140 -729 -151 -742 -18 -21 -44 -20 -63 2 -10 11 -29 104 -53 252 -83 513
-112 667 -118 630 -4 -19 -18 -129 -32 -245 -14 -115 -48 -395 -75 -622 -28
-226 -50 -418 -50 -427 0 -8 -11 -23 -24 -31 -30 -20 -63 -7 -71 28 -2 12 -16
164 -30 337 -14 173 -41 491 -60 705 -19 215 -42 488 -52 608 -9 119 -20 217
-23 217 -3 0 -20 -123 -38 -272z"/>
<path fill="#CBD5E1" d="M2315 1285 c-49 -17 -94 -24 -148 -24 l-77 -1 26 -52 c38 -74 115
-144 235 -212 169 -97 381 -239 421 -284 42 -46 77 -111 102 -189 l18 -53 119
0 120 0 21 36 c12 20 41 49 64 64 l43 27 -62 29 c-46 21 -87 54 -157 124 -99
99 -139 155 -160 227 -12 38 -17 43 -49 49 -79 12 -218 57 -266 84 -60 34 -91
66 -139 143 -20 31 -38 57 -39 56 -1 -1 -33 -12 -72 -24z"/>
<path fill="#CBD5E1" d="M4590 1059 c-125 -64 -262 -79 -386 -40 l-71 22 -56 -20 c-31 -10
-69 -28 -84 -39 -72 -50 -131 -51 -263 -2 -106 39 -159 44 -273 26 -131 -22
-178 -20 -289 8 -77 19 -104 22 -143 15 -27 -5 -51 -12 -54 -15 -14 -14 59
-121 133 -195 60 -60 101 -91 160 -121 43 -22 125 -75 181 -118 56 -42 119
-83 140 -90 59 -19 133 -6 267 48 68 27 157 57 198 67 195 44 262 78 331 171
22 31 60 68 85 82 24 15 68 42 97 59 36 22 60 45 72 68 20 43 31 105 19 104
-5 -1 -34 -14 -64 -30z"/>
</g>
</svg>
