<svg version="1.1" id="Layer_1" xmlns="http://www.w3.org/2000/svg" xmlns:xlink="http://www.w3.org/1999/xlink" x="0px" y="0px"
	 width="100%" viewBox="0 0 566 441" enable-background="new 0 0 566 441" xml:space="preserve">
<path  opacity="0.000000" stroke="none"
	d="
M286.000000,442.000000 
	C190.666687,442.000000 95.833382,442.000000 1.000051,442.000000 
	C1.000034,295.000061 1.000034,148.000122 1.000017,1.000130 
	C189.666565,1.000087 378.333130,1.000087 566.999756,1.000043 
	C566.999878,147.999863 566.999878,294.999725 566.999939,441.999786 
	C473.500000,442.000000 380.000000,442.000000 286.000000,442.000000 
M515.001282,152.995544 
	C515.001282,152.995544 515.051514,152.970032 514.910522,152.450333 
	C514.607788,152.281189 514.305115,152.112061 513.990662,152.004349 
	C513.990662,152.004349 514.053040,151.999847 513.875732,151.494186 
	C513.581360,151.306900 513.286926,151.119614 512.707825,150.333466 
	C504.101562,139.896683 492.517578,136.198212 479.646759,137.112228 
	C466.712738,138.030731 456.361176,144.137894 450.095428,156.253250 
	C443.837402,146.842804 437.280304,141.463852 427.368561,138.759598 
	C418.470276,136.331833 409.719940,135.823578 400.433167,139.968521 
	C396.491302,142.053421 391.581940,142.873550 390.004974,148.005386 
	C390.004974,148.005386 389.995514,147.951736 389.506073,148.136749 
	C389.320740,148.423141 389.135406,148.709518 389.006775,149.007874 
	C389.006775,149.007874 388.994476,148.951218 388.499542,149.125763 
	C388.316559,149.413895 388.133545,149.702026 388.004303,150.004654 
	C388.004303,150.004654 387.989105,149.951080 387.497437,150.125809 
	C387.315460,150.412323 387.133514,150.698853 387.002716,151.001907 
	C387.002716,151.001907 386.983826,150.951523 386.473846,151.093048 
	C386.297638,151.385925 386.121429,151.678787 385.996796,151.948837 
	C385.996796,151.948837 385.945374,151.925598 385.220612,151.943405 
	C384.869385,152.670197 384.518188,153.396988 384.041656,154.484100 
	C384.041656,154.484100 383.950775,154.854614 383.376831,154.917511 
	C383.048126,155.134140 382.719421,155.350769 382.390686,155.567383 
	C382.593933,155.772461 382.797180,155.977539 383.034882,156.557480 
	C383.034882,156.557480 382.995300,156.931824 382.492798,157.108490 
	C382.309113,157.401978 382.125427,157.695465 381.997833,157.996078 
	C381.997833,157.996078 381.960449,157.953690 381.335083,158.296127 
	C380.289459,161.240662 379.243805,164.185211 378.083740,167.498917 
	C378.083740,167.498917 377.983063,167.872086 377.419586,168.044128 
	C377.265656,168.774765 377.111694,169.505386 377.007080,170.819641 
	C376.993835,171.209015 376.980591,171.598373 376.392334,172.291748 
	C376.343140,173.885391 376.293945,175.479050 376.129028,177.799744 
	C376.082886,178.534225 376.036743,179.268707 375.357147,180.445587 
	C375.563568,182.632019 375.769958,184.818451 376.054138,187.739502 
	C376.110291,188.475250 376.166443,189.211014 376.044647,190.692505 
	C376.344025,191.825439 376.643402,192.958359 377.040009,194.689163 
	C377.084625,195.090118 377.129242,195.491089 376.864899,196.516830 
	C377.135986,200.321930 378.143036,203.225754 382.948029,203.016815 
	C388.255890,202.785965 393.600372,203.220139 398.889374,202.829727 
	C400.655243,202.699387 403.443329,201.223892 403.808899,199.844971 
	C405.805237,192.314499 407.192383,184.622528 409.206665,176.319260 
	C410.679352,170.905182 412.152008,165.491089 414.101440,158.324280 
	C415.923370,161.045258 417.508606,162.478912 417.920746,164.194397 
	C419.478729,170.679550 420.630066,177.261505 421.983124,183.796997 
	C423.277893,190.050919 424.626587,196.293716 425.965942,202.538330 
	C426.956116,207.154739 427.961517,211.767883 428.977539,216.378677 
	C429.237915,217.560257 429.563995,218.727371 429.859833,219.901154 
	C430.557587,218.627029 431.538391,217.428085 431.900482,216.064804 
	C433.028595,211.817245 433.922424,207.507462 435.849762,203.038055 
	C453.560028,203.025360 471.270660,202.960144 488.979919,203.087433 
	C490.613373,203.099167 492.237976,204.337265 493.998047,205.056442 
	C493.998047,205.056442 494.048767,204.925156 493.108978,205.023438 
	C476.302490,205.015076 459.495728,204.968628 442.690033,205.079422 
	C441.500732,205.087265 438.406433,203.304077 439.072815,207.902969 
	C436.716736,217.921539 434.415314,227.953598 431.947174,237.944473 
	C431.565063,239.491119 430.419098,240.849060 429.626343,242.294266 
	C429.092712,242.168304 428.559052,242.042343 428.025391,241.916382 
	C423.803558,221.782043 419.581726,201.647705 415.359894,181.513351 
	C413.343536,185.515015 412.488190,189.383209 411.301666,193.147003 
	C410.078400,197.027481 408.532654,200.806305 406.219482,204.976120 
	C379.902313,204.998367 353.585114,205.020630 326.908295,204.381607 
	C324.693878,199.096588 322.637146,193.735382 320.148834,188.582626 
	C319.561493,187.366394 317.603638,186.571106 316.114319,186.134506 
	C315.386047,185.921005 313.691864,186.775101 313.451355,187.488678 
	C311.950928,191.939590 310.871979,196.532089 309.386200,200.988586 
	C308.255096,204.381302 306.728394,207.642136 305.377716,210.961639 
	C301.182770,194.729095 298.115967,178.788254 295.001343,162.856781 
	C294.027069,157.873276 293.236267,152.814117 291.684814,148.008026 
	C291.233276,146.609070 288.440277,145.965973 286.720551,144.976395 
	C286.103149,146.063828 285.208038,147.081848 284.915894,148.250580 
	C283.574738,153.615829 282.297211,159.001846 281.194580,164.420654 
	C279.683899,171.844635 278.478485,179.331894 276.904175,186.741455 
	C275.594055,192.907837 273.940613,199.001282 271.420532,205.023834 
	C248.999130,205.016266 226.577652,204.987503 204.156448,205.049728 
	C202.689941,205.053787 201.225357,205.755020 199.232697,206.241241 
	C199.152679,206.882568 199.072678,207.523895 199.028061,208.550583 
	C199.028061,208.550583 198.978409,208.934357 198.479462,209.089355 
	C198.378342,209.395294 198.277222,209.701233 198.065308,210.443024 
	C198.065308,210.443024 197.953873,210.878723 197.380692,210.906052 
	C197.215607,211.320908 197.050522,211.735764 196.450974,212.696838 
	C195.982834,212.365845 195.163467,212.093399 195.097107,211.695389 
	C192.343246,195.178284 189.687271,178.644882 186.951828,162.124649 
	C184.992706,150.292816 183.093658,138.445923 180.760696,126.686508 
	C180.407501,124.906219 177.940277,123.426086 176.198441,122.152367 
	C175.891129,121.927643 173.714523,123.242851 173.463593,124.143074 
	C172.624359,127.153831 172.119766,130.281708 171.755478,133.396133 
	C170.958771,140.207367 170.531906,147.066727 169.576401,153.853271 
	C168.362076,162.477966 166.632706,171.029678 165.390823,179.651093 
	C164.373840,186.711136 163.774246,193.830597 162.931595,200.916809 
	C162.565063,203.999207 161.968658,207.054871 161.623962,210.139130 
	C160.768936,217.789780 159.998718,225.449921 159.085724,234.141190 
	C157.962189,232.549515 157.394791,232.065689 157.234756,231.472031 
	C153.511978,217.661819 149.922073,203.814713 146.042389,190.049149 
	C145.513931,188.174088 143.578201,186.695633 142.294052,185.033554 
	C141.002518,186.682785 139.219788,188.146881 138.514801,190.017197 
	C136.662918,194.930267 135.280396,200.020248 132.827484,205.025330 
	C104.637604,205.015091 76.447685,204.988068 48.257957,205.046860 
	C46.926407,205.049622 45.596447,205.814468 43.952652,206.639709 
	C44.050411,207.375961 44.148170,208.112198 44.290260,209.749146 
	C44.612808,209.828461 44.935326,209.977112 45.257912,209.977280 
	C75.565781,209.991837 105.873672,210.004868 136.181458,209.953369 
	C137.128479,209.951767 138.074356,209.274902 139.669510,208.668579 
	C140.398560,207.494843 141.127625,206.321106 142.296310,204.439575 
	C144.646393,212.871368 146.827103,220.612869 148.959488,228.367691 
	C151.484192,237.549316 153.851288,246.777405 156.600922,255.890533 
	C156.986252,257.167664 159.252701,258.781158 160.477509,258.649445 
	C161.727737,258.515045 163.555710,256.543945 163.769745,255.165604 
	C165.049194,246.926163 165.952927,238.627762 166.949020,230.345108 
	C168.065018,221.065582 169.057800,211.770340 170.266632,202.503128 
	C171.389511,193.894806 172.762955,185.319473 173.957916,176.720139 
	C175.011322,169.139587 175.970520,161.545929 176.971329,153.958069 
	C177.231918,153.962616 177.492508,153.967178 177.753098,153.971741 
	C182.369873,181.038147 186.986664,208.104553 191.603439,235.170944 
	C192.403412,235.250488 193.203400,235.330032 194.003387,235.409576 
	C196.290009,230.967880 198.576645,226.526199 200.948959,221.343475 
	C202.006592,218.917465 203.064224,216.491455 204.655365,213.768433 
	C205.064240,212.865036 205.473114,211.961624 205.989716,210.590668 
	C205.989716,210.590668 206.097839,210.123199 206.304077,210.084976 
	C206.304077,210.084976 206.267105,209.878494 207.157288,209.943329 
	C229.656174,209.961319 252.155106,209.994446 274.653870,209.952835 
	C275.785980,209.950729 276.916901,209.302017 278.588654,208.796631 
	C279.002747,208.217529 279.416840,207.638428 279.921234,206.418472 
	C279.991577,205.995377 280.061920,205.572296 280.680084,204.853531 
	C280.739532,204.260620 280.798981,203.667694 280.947632,202.388016 
	C280.902405,201.931076 280.857147,201.474121 281.234772,200.329300 
	C283.193817,190.581848 285.152863,180.834396 287.658081,170.893326 
	C288.436127,171.624008 289.214172,172.354706 290.072998,173.715881 
	C290.119141,174.136734 290.165283,174.557587 290.049133,175.783859 
	C290.678253,178.527664 291.307373,181.271469 292.006439,184.689377 
	C291.990936,185.366699 291.975464,186.044037 291.415283,187.110413 
	C292.270660,189.441772 293.126068,191.773117 294.090820,194.579865 
	C294.090820,194.579865 294.239136,195.044571 294.075623,195.756027 
	C294.371124,196.840668 294.666656,197.925293 295.032318,199.675079 
	C295.086121,200.117050 295.139923,200.559036 295.029449,201.701569 
	C295.347839,202.498566 295.666199,203.295547 296.102478,204.585464 
	C296.155548,204.745865 296.208588,204.906265 296.092407,205.854843 
	C296.856354,210.474899 297.568268,215.104431 298.407013,219.710876 
	C298.802338,221.882080 299.441071,224.008972 300.078461,226.560486 
	C300.078461,226.560486 300.219147,226.955109 299.910034,227.551178 
	C300.609100,229.756180 301.308136,231.961197 302.007202,234.166214 
	C302.620575,234.203476 303.233978,234.240738 303.847351,234.278000 
	C310.593597,223.823563 312.581787,211.245697 317.940338,200.097229 
	C317.940338,200.097229 317.875092,200.077164 317.895508,200.808960 
	C318.925446,202.574417 319.955383,204.339874 321.018433,206.479095 
	C321.018433,206.479095 321.097198,206.845963 320.925354,207.429138 
	C321.155182,207.917557 321.384979,208.405991 322.111176,209.683975 
	C323.755188,209.788940 325.398865,209.978989 327.043304,209.985840 
	C345.007050,210.060638 362.970886,210.106781 381.188538,210.817459 
	C382.089355,212.709991 382.753967,214.766144 383.932037,216.466599 
	C388.916046,223.660690 393.745331,230.999115 399.258301,237.774521 
	C402.186432,241.373215 406.396851,243.928497 410.198242,247.432770 
	C410.475220,247.611938 410.752197,247.791122 411.274872,248.604660 
	C412.283905,249.708420 413.133759,251.037399 414.326813,251.880890 
	C425.462036,259.753662 436.608154,267.614227 447.911865,275.240082 
	C448.974030,275.956665 451.411041,275.534210 452.737732,274.794312 
	C457.013397,272.409821 461.326263,269.957001 465.158966,266.938965 
	C475.913635,258.470245 486.435150,249.705414 497.004456,241.009064 
	C497.004456,241.009064 497.055695,241.047958 497.679474,240.800797 
	C507.029358,232.115967 514.903381,222.176407 519.712646,210.395218 
	C526.350647,194.134094 528.178833,177.477249 520.039124,161.002258 
	C520.039124,161.002258 520.091248,160.962097 520.080444,160.249527 
	C519.053040,158.742676 518.025574,157.235840 516.988953,155.204315 
	C516.734436,154.785660 516.479980,154.367004 516.010071,153.418808 
	C515.681824,153.260696 515.353516,153.102600 515.001282,152.995544 
z"/>
<path fill="#CBD5E1" opacity="1.000000" stroke="none"
	d="
M401.188232,140.098206 
	C409.719940,135.823578 418.470276,136.331833 427.368561,138.759598 
	C437.280304,141.463852 443.837402,146.842804 450.095428,156.253250 
	C456.361176,144.137894 466.712738,138.030731 479.646759,137.112228 
	C492.517578,136.198212 504.101562,139.896683 513.005981,150.831299 
	C513.553711,151.552704 513.803406,151.776276 514.053040,151.999847 
	C514.053040,151.999847 513.990662,152.004349 514.141357,152.174164 
	C514.507874,152.597855 514.761047,152.806534 515.051514,152.970032 
	C515.051514,152.970032 515.001282,152.995544 515.172485,153.182602 
	C515.637634,153.562546 515.931580,153.755447 516.225464,153.948349 
	C516.479980,154.367004 516.734436,154.785660 516.992554,155.856110 
	C518.027832,157.992645 519.059570,159.477371 520.091248,160.962097 
	C520.091248,160.962097 520.039124,161.002258 520.032654,161.395477 
	C520.260803,163.584930 520.198669,165.484116 520.780029,167.160110 
	C523.744324,175.706497 523.579956,184.454208 522.448730,193.202820 
	C520.290161,209.896011 511.005341,222.914566 500.406464,235.242828 
	C498.975220,236.907623 498.157501,239.099915 497.055664,241.047943 
	C497.055695,241.047958 497.004456,241.009064 496.664734,241.032104 
	C494.790436,241.973572 493.180634,242.787292 491.732941,243.826767 
	C478.392670,253.405289 465.101990,263.053192 451.707916,272.555573 
	C450.884277,273.139954 448.979095,273.165222 448.134827,272.607025 
	C438.885864,266.492188 429.766785,260.181335 420.569244,253.987823 
	C417.451996,251.888718 414.212708,249.970932 411.029175,247.970291 
	C410.752197,247.791122 410.475220,247.611938 410.063385,246.840729 
	C409.161987,245.005020 408.560333,243.613739 407.601227,242.542450 
	C402.731689,237.103546 397.141449,232.183319 393.017456,226.239273 
	C388.943085,220.366837 386.317780,213.489044 383.519440,207.049210 
	C391.658447,206.692688 399.334839,206.339233 407.075867,205.649780 
	C407.136322,205.085739 407.132172,204.857681 407.127991,204.629623 
	C408.532654,200.806305 410.078400,197.027481 411.301666,193.147003 
	C412.488190,189.383209 413.343536,185.515015 415.359894,181.513351 
	C419.581726,201.647705 423.803558,221.782043 428.025391,241.916382 
	C428.559052,242.042343 429.092712,242.168304 429.626343,242.294266 
	C430.419098,240.849060 431.565063,239.491119 431.947174,237.944473 
	C434.415314,227.953598 436.716736,217.921539 439.494629,207.253479 
	C441.697388,206.416870 443.477814,206.073380 445.259369,206.067368 
	C459.839630,206.018280 474.420319,206.067780 489.000214,205.978424 
	C490.685150,205.968109 492.366028,205.292374 494.048767,204.925156 
	C494.048767,204.925156 493.998047,205.056442 494.172241,204.923737 
	C494.217224,204.017899 494.087952,203.244766 493.623505,202.208725 
	C474.527405,201.933609 455.766510,201.921387 436.699036,201.993958 
	C435.897369,202.459763 435.402222,202.840790 434.907074,203.221832 
	C433.922424,207.507462 433.028595,211.817245 431.900482,216.064804 
	C431.538391,217.428085 430.557587,218.627029 429.859863,219.901154 
	C429.563995,218.727371 429.237915,217.560257 428.977539,216.378677 
	C427.961517,211.767883 426.956116,207.154739 425.965942,202.538330 
	C424.626587,196.293716 423.277893,190.050919 421.983124,183.796997 
	C420.630066,177.261505 419.478729,170.679550 417.920746,164.194397 
	C417.508606,162.478912 415.923370,161.045258 414.101440,158.324280 
	C412.152008,165.491089 410.679352,170.905182 408.708984,176.829727 
	C406.163574,183.728851 404.172974,190.136841 402.024780,196.491547 
	C401.534729,197.941193 400.591766,200.303940 399.701508,200.378143 
	C394.129303,200.842606 388.465546,201.231049 382.935699,200.653198 
	C380.871796,200.437515 379.086304,197.557297 377.173859,195.892044 
	C377.129242,195.491089 377.084625,195.090118 377.145569,194.121994 
	C376.908295,192.352127 376.565430,191.149445 376.222595,189.946762 
	C376.166443,189.211014 376.110291,188.475250 376.194580,187.050781 
	C376.220184,184.242432 376.105377,182.122818 375.990601,180.003189 
	C376.036743,179.268707 376.082886,178.534225 376.442719,177.243698 
	C376.826691,175.121017 376.897003,173.554382 376.967316,171.987747 
	C376.980591,171.598373 376.993835,171.209015 377.150269,170.249893 
	C377.523315,169.077454 377.753204,168.474777 377.983063,167.872086 
	C377.983063,167.872086 378.083740,167.498917 378.419830,167.117340 
	C379.824097,163.808411 380.892273,160.881042 381.960449,157.953690 
	C381.960449,157.953690 381.997833,157.996078 382.172668,157.844620 
	C382.563416,157.439392 382.779358,157.185608 382.995300,156.931824 
	C382.995300,156.931824 383.034882,156.557480 383.192047,156.160156 
	C383.549744,155.460098 383.750244,155.157349 383.950745,154.854614 
	C383.950775,154.854614 384.041656,154.484100 384.352600,154.146820 
	C385.090820,153.181549 385.518097,152.553574 385.945374,151.925598 
	C385.945374,151.925598 385.996796,151.948837 386.169434,151.817291 
	C386.593842,151.474106 386.807770,151.229355 386.983826,150.951523 
	C386.983826,150.951523 387.002716,151.001907 387.175476,150.847931 
	C387.598938,150.478302 387.812531,150.230667 387.989105,149.951080 
	C387.989105,149.951080 388.004303,150.004654 388.176514,149.850586 
	C388.600433,149.479675 388.815674,149.231247 388.994476,148.951218 
	C388.994476,148.951218 389.006775,149.007874 389.176880,148.853088 
	C389.598633,148.480225 389.814789,148.231369 389.995514,147.951736 
	C389.995514,147.951736 390.004974,148.005386 390.316010,147.904480 
	C394.147461,145.235107 397.667847,142.666656 401.188232,140.098206 
z"/>
<path fill="#CBD5E1" opacity="1.000000" stroke="none"
	d="
M300.219147,226.955109 
	C300.219147,226.955109 300.078461,226.560486 300.040771,225.903473 
	C298.755951,218.519867 297.508789,211.793274 296.261658,205.066666 
	C296.208588,204.906265 296.155548,204.745865 296.025970,204.016296 
	C295.697540,202.631744 295.445618,201.816376 295.193726,201.001007 
	C295.139923,200.559036 295.086121,200.117050 294.997101,199.001984 
	C294.720978,197.234116 294.480072,196.139343 294.239136,195.044571 
	C294.239136,195.044571 294.090820,194.579865 294.043640,193.918579 
	C293.317627,191.078644 292.638794,188.899994 291.959961,186.721359 
	C291.975464,186.044037 291.990936,185.366699 291.985718,183.930939 
	C291.380463,180.441162 290.795929,177.709793 290.211426,174.978439 
	C290.165283,174.557587 290.119141,174.136734 290.034943,173.018555 
	C289.139740,170.863663 288.282593,169.406097 287.425415,167.948517 
	C287.320923,168.994659 287.216400,170.040802 287.111877,171.086945 
	C285.152863,180.834396 283.193817,190.581848 280.836731,200.772491 
	C280.578583,201.835373 280.718475,202.455078 280.858398,203.074783 
	C280.798981,203.667694 280.739532,204.260620 280.197235,205.050217 
	C279.753235,205.851044 279.792084,206.455170 279.830933,207.059311 
	C279.416840,207.638428 279.002747,208.217529 278.057831,208.840881 
	C277.354492,208.853806 277.182007,208.822495 276.624725,208.645813 
	C275.262268,208.347168 274.284821,208.061661 273.306885,208.060043 
	C252.443771,208.025406 231.580505,207.993347 210.717682,208.073273 
	C209.167053,208.079193 207.619659,208.933472 206.172867,209.493195 
	C206.274963,209.593018 206.267105,209.878494 206.267105,209.878494 
	C206.267105,209.878494 206.304077,210.084976 206.058197,210.123291 
	C205.689590,210.242508 205.566879,210.323425 205.444183,210.404358 
	C205.590118,210.622330 205.736053,210.840271 205.881989,211.058228 
	C205.473114,211.961624 205.064240,212.865036 204.074310,214.036469 
	C201.332443,216.463745 198.452835,218.379974 200.863266,222.084503 
	C198.576645,226.526199 196.290009,230.967880 194.003387,235.409576 
	C193.203400,235.330032 192.403412,235.250488 191.603439,235.170944 
	C186.986664,208.104553 182.369873,181.038147 177.753098,153.971741 
	C177.492508,153.967178 177.231918,153.962616 176.971329,153.958069 
	C175.970520,161.545929 175.011322,169.139587 173.957916,176.720139 
	C172.762955,185.319473 171.389511,193.894806 170.266632,202.503128 
	C169.057800,211.770340 168.065018,221.065582 166.949020,230.345108 
	C165.952927,238.627762 165.049194,246.926163 163.769745,255.165604 
	C163.555710,256.543945 161.727737,258.515045 160.477509,258.649445 
	C159.252701,258.781158 156.986252,257.167664 156.600922,255.890533 
	C153.851288,246.777405 151.484192,237.549316 148.959488,228.367691 
	C146.827103,220.612869 144.646393,212.871368 142.296310,204.439575 
	C141.127625,206.321106 140.398560,207.494843 139.010712,208.794159 
	C137.908310,208.903748 137.464691,208.887756 136.703583,208.723328 
	C134.591888,208.671021 132.797684,208.767136 130.673798,208.921600 
	C129.901627,208.939178 129.459167,208.898422 128.636887,208.697891 
	C125.948685,208.356125 123.640564,208.020096 121.331879,208.016037 
	C98.715332,207.976395 76.098679,207.992065 53.482063,207.992020 
	C51.797497,207.992020 50.112930,207.992020 48.428360,207.992020 
	C48.437344,207.664703 48.446327,207.337402 48.455311,207.010086 
	C50.257950,207.010086 52.060589,207.010101 53.863228,207.010086 
	C77.145042,207.009979 100.426918,207.033569 123.708580,206.974823 
	C126.169258,206.968613 128.628723,206.478607 131.394653,206.144485 
	C132.370667,205.730530 133.040756,205.385132 133.710861,205.039734 
	C135.280396,200.020248 136.662918,194.930267 138.514801,190.017197 
	C139.219788,188.146881 141.002518,186.682785 142.294052,185.033554 
	C143.578201,186.695633 145.513931,188.174088 146.042389,190.049149 
	C149.922073,203.814713 153.511978,217.661819 157.234756,231.472031 
	C157.394791,232.065689 157.962189,232.549515 159.085724,234.141190 
	C159.998718,225.449921 160.768936,217.789780 161.623962,210.139130 
	C161.968658,207.054871 162.565063,203.999207 162.931595,200.916809 
	C163.774246,193.830597 164.373840,186.711136 165.390823,179.651093 
	C166.632706,171.029678 168.362076,162.477966 169.576401,153.853271 
	C170.531906,147.066727 170.958771,140.207367 171.755478,133.396133 
	C172.119766,130.281708 172.624359,127.153831 173.463593,124.143074 
	C173.714523,123.242851 175.891129,121.927643 176.198441,122.152367 
	C177.940277,123.426086 180.407501,124.906219 180.760696,126.686508 
	C183.093658,138.445923 184.992706,150.292816 186.951828,162.124649 
	C189.687271,178.644882 192.343246,195.178284 195.097107,211.695389 
	C195.163467,212.093399 195.982834,212.365845 196.857452,212.221268 
	C197.493912,211.456711 197.723892,211.167709 197.953873,210.878723 
	C197.953873,210.878723 198.065308,210.443024 198.272049,210.059448 
	C198.674210,209.448166 198.840744,209.200989 198.978409,208.934357 
	C198.978409,208.934357 199.028061,208.550583 199.408173,208.235229 
	C202.578094,207.617920 205.366913,207.065521 208.157913,207.054276 
	C227.580887,206.975967 247.004425,207.037262 266.427460,206.964539 
	C268.318878,206.957458 270.208099,206.345428 272.220062,205.806427 
	C272.341797,205.598679 272.439270,205.127045 272.439270,205.127045 
	C273.940613,199.001282 275.594055,192.907837 276.904175,186.741455 
	C278.478485,179.331894 279.683899,171.844635 281.194580,164.420654 
	C282.297211,159.001846 283.574738,153.615829 284.915894,148.250580 
	C285.208038,147.081848 286.103149,146.063828 286.720551,144.976395 
	C288.440277,145.965973 291.233276,146.609070 291.684814,148.008026 
	C293.236267,152.814117 294.027069,157.873276 295.001343,162.856781 
	C298.115967,178.788254 301.182770,194.729095 305.377716,210.961639 
	C306.728394,207.642136 308.255096,204.381302 309.386200,200.988586 
	C310.871979,196.532089 311.950928,191.939590 313.451355,187.488678 
	C313.691864,186.775101 315.386047,185.921005 316.114319,186.134506 
	C317.603638,186.571106 319.561493,187.366394 320.148834,188.582626 
	C322.637146,193.735382 324.693878,199.096588 327.091461,204.942993 
	C327.488098,205.727829 327.719299,205.931076 328.128723,206.273224 
	C328.509430,206.637741 328.739105,206.831879 328.656921,207.190063 
	C325.922760,207.192245 323.509979,207.019104 321.097198,206.845963 
	C321.097198,206.845963 321.018433,206.479095 320.990234,205.908524 
	C319.933044,203.584351 318.904053,201.830765 317.875092,200.077164 
	C317.875092,200.077164 317.940338,200.097229 317.837036,199.912048 
	C316.607697,200.718765 314.976105,201.497421 314.450867,202.742722 
	C312.903595,206.411270 311.886841,210.299072 310.492798,214.037811 
	C308.386444,219.686844 306.136719,225.282425 303.730164,231.459732 
	C302.179840,229.470673 301.199493,228.212891 300.219147,226.955109 
z"/>
<path fill="#CBD5E1" opacity="1.000000" stroke="none"
	d="
M411.152039,248.287476 
	C414.212708,249.970932 417.451996,251.888718 420.569244,253.987823 
	C429.766785,260.181335 438.885864,266.492188 448.134827,272.607025 
	C448.979095,273.165222 450.884277,273.139954 451.707916,272.555573 
	C465.101990,263.053192 478.392670,253.405289 491.732941,243.826767 
	C493.180634,242.787292 494.790436,241.973572 496.686829,241.056259 
	C486.435150,249.705414 475.913635,258.470245 465.158966,266.938965 
	C461.326263,269.957001 457.013397,272.409821 452.737732,274.794312 
	C451.411041,275.534210 448.974030,275.956665 447.911865,275.240082 
	C436.608154,267.614227 425.462036,259.753662 414.326813,251.880890 
	C413.133759,251.037399 412.283905,249.708420 411.152039,248.287476 
z"/>
<path fill="#CBD5E1" opacity="1.000000" stroke="none"
	d="
M497.367554,240.924377 
	C498.157501,239.099915 498.975220,236.907623 500.406464,235.242828 
	C511.005341,222.914566 520.290161,209.896011 522.448730,193.202820 
	C523.579956,184.454208 523.744324,175.706497 520.780029,167.160110 
	C520.198669,165.484116 520.260803,163.584930 520.041321,161.363739 
	C528.178833,177.477249 526.350647,194.134094 519.712646,210.395218 
	C514.903381,222.176407 507.029358,232.115967 497.367554,240.924377 
z"/>
<path fill="#CBD5E1" opacity="1.000000" stroke="none"
	d="
M321.011292,207.137543 
	C323.509979,207.019104 325.922760,207.192245 328.997467,207.190033 
	C330.112885,207.014450 330.566376,207.014206 331.386353,207.198792 
	C332.394073,207.555115 333.034698,207.873947 333.676605,207.876450 
	C347.340485,207.929657 361.004578,207.969681 374.668396,207.930099 
	C375.778473,207.926880 376.886871,207.331802 378.254944,206.942902 
	C378.998718,206.650208 379.483551,206.426331 380.308441,206.133438 
	C381.106689,206.109329 381.564850,206.154236 382.190308,206.346649 
	C382.584076,206.688416 382.817169,206.874451 383.056824,207.052261 
	C386.317780,213.489044 388.943085,220.366837 393.017456,226.239273 
	C397.141449,232.183319 402.731689,237.103546 407.601227,242.542450 
	C408.560333,243.613739 409.161987,245.005020 409.978516,246.601746 
	C406.396851,243.928497 402.186432,241.373215 399.258301,237.774521 
	C393.745331,230.999115 388.916046,223.660690 383.932037,216.466599 
	C382.753967,214.766144 382.089355,212.709991 380.895447,210.089142 
	C378.796173,209.259735 376.990387,209.077728 375.183838,209.070129 
	C357.327576,208.994995 339.471161,208.948792 321.614807,208.894409 
	C321.384979,208.405991 321.155182,207.917557 321.011292,207.137543 
z"/>
<path fill="#CBD5E1" opacity="1.000000" stroke="none"
	d="
M131.088745,206.213043 
	C128.628723,206.478607 126.169258,206.968613 123.708580,206.974823 
	C100.426918,207.033569 77.145042,207.009979 53.863228,207.010086 
	C52.060589,207.010101 50.257950,207.010086 48.455311,207.010086 
	C48.446327,207.337402 48.437344,207.664703 48.428360,207.992020 
	C50.112930,207.992020 51.797497,207.992020 53.482063,207.992020 
	C76.098679,207.992065 98.715332,207.976395 121.331879,208.016037 
	C123.640564,208.020096 125.948685,208.356125 128.169754,208.760193 
	C100.136940,208.937653 72.191437,208.893051 44.245934,208.848450 
	C44.148170,208.112198 44.050411,207.375961 44.551842,206.366638 
	C73.796936,206.133392 102.442841,206.173218 131.088745,206.213043 
z"/>
<path fill="#CBD5E1" opacity="1.000000" stroke="none"
	d="
M377.019379,196.204437 
	C379.086304,197.557297 380.871796,200.437515 382.935699,200.653198 
	C388.465546,201.231049 394.129303,200.842606 399.701508,200.378143 
	C400.591766,200.303940 401.534729,197.941193 402.024780,196.491547 
	C404.172974,190.136841 406.163574,183.728851 408.500153,177.163147 
	C407.192383,184.622528 405.805237,192.314499 403.808899,199.844971 
	C403.443329,201.223892 400.655243,202.699387 398.889374,202.829727 
	C393.600372,203.220139 388.255890,202.785965 382.948029,203.016815 
	C378.143036,203.225754 377.135986,200.321930 377.019379,196.204437 
z"/>
<path fill="#CBD5E1" opacity="1.000000" stroke="none"
	d="
M44.268097,209.298798 
	C72.191437,208.893051 100.136940,208.937653 128.549576,208.919952 
	C129.459167,208.898422 129.901627,208.939178 131.100189,208.982956 
	C133.577881,208.947906 135.299469,208.909836 137.021072,208.871765 
	C137.464691,208.887756 137.908310,208.903748 138.686340,208.916290 
	C138.074356,209.274902 137.128479,209.951767 136.181458,209.953369 
	C105.873672,210.004868 75.565781,209.991837 45.257912,209.977280 
	C44.935326,209.977112 44.612808,209.828461 44.268097,209.298798 
z"/>
<path fill="#CBD5E1" opacity="1.000000" stroke="none"
	d="
M300.064575,227.253143 
	C301.199493,228.212891 302.179840,229.470673 303.730164,231.459732 
	C306.136719,225.282425 308.386444,219.686844 310.492798,214.037811 
	C311.886841,210.299072 312.903595,206.411270 314.450867,202.742722 
	C314.976105,201.497421 316.607697,200.718765 317.823517,199.943390 
	C312.581787,211.245697 310.593597,223.823563 303.847351,234.278000 
	C303.233978,234.240738 302.620575,234.203476 302.007202,234.166214 
	C301.308136,231.961197 300.609100,229.756180 300.064575,227.253143 
z"/>
<path fill="#CBD5E1" opacity="1.000000" stroke="none"
	d="
M131.394653,206.144485 
	C102.442841,206.173218 73.796936,206.133392 44.708389,206.158981 
	C45.596447,205.814468 46.926407,205.049622 48.257957,205.046860 
	C76.447685,204.988068 104.637604,205.015091 133.269165,205.032532 
	C133.040756,205.385132 132.370667,205.730530 131.394653,206.144485 
z"/>
<path fill="#CBD5E1" opacity="1.000000" stroke="none"
	d="
M382.023041,206.199142 
	C381.564850,206.154236 381.106689,206.109329 379.846130,206.066956 
	C362.018585,206.084351 344.993408,206.099228 327.968231,206.114105 
	C327.719299,205.931076 327.488098,205.727829 327.271301,205.273651 
	C353.585114,205.020630 379.902313,204.998367 406.673767,204.802872 
	C407.132172,204.857681 407.136322,205.085739 406.606323,205.653244 
	C398.055786,206.061508 390.039398,206.130325 382.023041,206.199142 
z"/>
<path fill="#CBD5E1" opacity="1.000000" stroke="none"
	d="
M272.098328,206.014191 
	C270.208099,206.345428 268.318878,206.957458 266.427460,206.964539 
	C247.004425,207.037262 227.580887,206.975967 208.157913,207.054276 
	C205.366913,207.065521 202.578094,207.617920 199.390472,208.042542 
	C199.072678,207.523895 199.152679,206.882568 199.981689,206.223114 
	C224.519897,206.141403 248.309113,206.077805 272.098328,206.014191 
z"/>
<path fill="#CBD5E1" opacity="1.000000" stroke="none"
	d="
M272.220062,205.806442 
	C248.309113,206.077805 224.519897,206.141403 200.245285,206.168488 
	C201.225357,205.755020 202.689941,205.053787 204.156448,205.049728 
	C226.577652,204.987503 248.999130,205.016266 271.929901,205.075439 
	C272.439270,205.127045 272.341797,205.598679 272.220062,205.806442 
z"/>
<path fill="#CBD5E1" opacity="1.000000" stroke="none"
	d="
M206.712189,209.910919 
	C206.267105,209.878494 206.274963,209.593018 206.631073,209.398941 
	C210.461990,209.145264 213.936630,209.048203 217.411621,209.032288 
	C237.277527,208.941223 257.143524,208.869476 277.009491,208.791183 
	C277.182007,208.822495 277.354492,208.853806 277.787689,208.919739 
	C276.916901,209.302017 275.785980,209.950729 274.653870,209.952835 
	C252.155106,209.994446 229.656174,209.961319 206.712189,209.910919 
z"/>
<path fill="#CBD5E1" opacity="1.000000" stroke="none"
	d="
M493.958710,202.471619 
	C494.087952,203.244766 494.217224,204.017899 494.106567,204.898483 
	C492.237976,204.337265 490.613373,203.099167 488.979919,203.087433 
	C471.270660,202.960144 453.560028,203.025360 435.378418,203.129944 
	C435.402222,202.840790 435.897369,202.459763 437.166016,202.041626 
	C442.238464,202.022400 446.537537,202.022690 450.836243,202.061371 
	C465.210480,202.190704 479.584564,202.333786 493.958710,202.471619 
z"/>
<path fill="#CBD5E1" opacity="1.000000" stroke="none"
	d="
M321.862976,209.289185 
	C339.471161,208.948792 357.327576,208.994995 375.183838,209.070129 
	C376.990387,209.077728 378.796173,209.259735 380.768524,209.760773 
	C362.970886,210.106781 345.007050,210.060638 327.043304,209.985840 
	C325.398865,209.978989 323.755188,209.788940 321.862976,209.289185 
z"/>
<path fill="#CBD5E1" opacity="1.000000" stroke="none"
	d="
M493.578857,204.974304 
	C492.366028,205.292374 490.685150,205.968109 489.000214,205.978424 
	C474.420319,206.067780 459.839630,206.018280 445.259369,206.067368 
	C443.477814,206.073380 441.697388,206.416870 439.622070,206.891449 
	C438.406433,203.304077 441.500732,205.087265 442.690033,205.079422 
	C459.495728,204.968628 476.302490,205.015076 493.578857,204.974304 
z"/>
<path fill="#CBD5E1" opacity="1.000000" stroke="none"
	d="
M296.177032,205.460754 
	C297.508789,211.793274 298.755951,218.519867 299.986298,225.701202 
	C299.441071,224.008972 298.802338,221.882080 298.407013,219.710876 
	C297.568268,215.104431 296.856354,210.474899 296.177032,205.460754 
z"/>
<path fill="#CBD5E1" opacity="1.000000" stroke="none"
	d="
M400.810699,140.033356 
	C397.667847,142.666656 394.147461,145.235107 390.290894,147.893921 
	C391.581940,142.873550 396.491302,142.053421 400.810699,140.033356 
z"/>
<path fill="#CBD5E1" opacity="1.000000" stroke="none"
	d="
M200.906113,221.713989 
	C198.452835,218.379974 201.332443,216.463745 203.807556,214.184998 
	C203.064224,216.491455 202.006592,218.917465 200.906113,221.713989 
z"/>
<path fill="#CBD5E1" opacity="1.000000" stroke="none"
	d="
M287.384979,170.990143 
	C287.216400,170.040802 287.320923,168.994659 287.425415,167.948517 
	C288.282593,169.406097 289.139740,170.863663 289.994568,172.703308 
	C289.214172,172.354706 288.436127,171.624008 287.384979,170.990143 
z"/>
<path fill="#CBD5E1" opacity="1.000000" stroke="none"
	d="
M381.647766,158.124908 
	C380.892273,160.881042 379.824097,163.808411 378.477051,166.932770 
	C379.243805,164.185211 380.289459,161.240662 381.647766,158.124908 
z"/>
<path fill="#CBD5E1" opacity="1.000000" stroke="none"
	d="
M375.673889,180.224396 
	C376.105377,182.122818 376.220184,184.242432 376.155701,186.683472 
	C375.769958,184.818451 375.563568,182.632019 375.673889,180.224396 
z"/>
<path fill="#CBD5E1" opacity="1.000000" stroke="none"
	d="
M290.130280,175.381149 
	C290.795929,177.709793 291.380463,180.441162 291.950745,183.593903 
	C291.307373,181.271469 290.678253,178.527664 290.130280,175.381149 
z"/>
<path fill="#CBD5E1" opacity="1.000000" stroke="none"
	d="
M291.687622,186.915894 
	C292.638794,188.899994 293.317627,191.078644 293.988953,193.680878 
	C293.126068,191.773117 292.270660,189.441772 291.687622,186.915894 
z"/>
<path fill="#CBD5E1" opacity="1.000000" stroke="none"
	d="
M317.885315,200.443054 
	C318.904053,201.830765 319.933044,203.584351 320.973694,205.721634 
	C319.955383,204.339874 318.925446,202.574417 317.885315,200.443054 
z"/>
<path fill="#CBD5E1" opacity="1.000000" stroke="none"
	d="
M376.679810,172.139740 
	C376.897003,173.554382 376.826691,175.121017 376.500580,176.880173 
	C376.293945,175.479050 376.343140,173.885391 376.679810,172.139740 
z"/>
<path fill="#CBD5E1" opacity="1.000000" stroke="none"
	d="
M520.085815,160.605804 
	C519.059570,159.477371 518.027832,157.992645 516.997131,156.118454 
	C518.025574,157.235840 519.053040,158.742676 520.085815,160.605804 
z"/>
<path fill="#CBD5E1" opacity="1.000000" stroke="none"
	d="
M376.133606,190.319641 
	C376.565430,191.149445 376.908295,192.352127 377.096954,193.823059 
	C376.643402,192.958359 376.344025,191.825439 376.133606,190.319641 
z"/>
<path fill="#CBD5E1" opacity="1.000000" stroke="none"
	d="
M280.903015,202.731400 
	C280.718475,202.455078 280.578583,201.835373 280.625305,201.116425 
	C280.857147,201.474121 280.902405,201.931076 280.903015,202.731400 
z"/>
<path fill="#CBD5E1" opacity="1.000000" stroke="none"
	d="
M279.876099,206.738892 
	C279.792084,206.455170 279.753235,205.851044 279.923340,205.198059 
	C280.061920,205.572296 279.991577,205.995377 279.876099,206.738892 
z"/>
<path fill="#CBD5E1" opacity="1.000000" stroke="none"
	d="
M294.157379,195.400299 
	C294.480072,196.139343 294.720978,197.234116 294.962036,198.669403 
	C294.666656,197.925293 294.371124,196.840668 294.157379,195.400299 
z"/>
<path fill="#CBD5E1" opacity="1.000000" stroke="none"
	d="
M385.583008,151.934509 
	C385.518097,152.553574 385.090820,153.181549 384.415283,153.966675 
	C384.518188,153.396988 384.869385,152.670197 385.583008,151.934509 
z"/>
<path fill="#CBD5E1" opacity="1.000000" stroke="none"
	d="
M295.111572,201.351288 
	C295.445618,201.816376 295.697540,202.631744 295.967041,203.769836 
	C295.666199,203.295547 295.347839,202.498566 295.111572,201.351288 
z"/>
<path fill="#CBD5E1" opacity="1.000000" stroke="none"
	d="
M377.701324,167.958099 
	C377.753204,168.474777 377.523315,169.077454 377.125610,169.958084 
	C377.111694,169.505386 377.265656,168.774765 377.701324,167.958099 
z"/>
<path fill="#CBD5E1" opacity="1.000000" stroke="none"
	d="
M383.663788,154.886047 
	C383.750244,155.157349 383.549744,155.460098 383.174835,155.972717 
	C382.797180,155.977539 382.593933,155.772461 382.390686,155.567383 
	C382.719421,155.350769 383.048126,155.134140 383.663788,154.886047 
z"/>
<path fill="#CBD5E1" opacity="1.000000" stroke="none"
	d="
M197.667282,210.892395 
	C197.723892,211.167709 197.493912,211.456711 197.074677,211.948151 
	C197.050522,211.735764 197.215607,211.320908 197.667282,210.892395 
z"/>
<path fill="#CBD5E1" opacity="1.000000" stroke="none"
	d="
M205.935852,210.824448 
	C205.736053,210.840271 205.590118,210.622330 205.444183,210.404358 
	C205.566879,210.323425 205.689590,210.242508 205.955078,210.142395 
	C206.097839,210.123199 205.989716,210.590668 205.935852,210.824448 
z"/>
<path fill="#CBD5E1" opacity="1.000000" stroke="none"
	d="
M388.747009,149.038483 
	C388.815674,149.231247 388.600433,149.479675 388.149628,149.843353 
	C388.133545,149.702026 388.316559,149.413895 388.747009,149.038483 
z"/>
<path fill="#CBD5E1" opacity="1.000000" stroke="none"
	d="
M387.743286,150.038452 
	C387.812531,150.230667 387.598938,150.478302 387.149902,150.839676 
	C387.133514,150.698853 387.315460,150.412323 387.743286,150.038452 
z"/>
<path fill="#CBD5E1" opacity="1.000000" stroke="none"
	d="
M386.728821,151.022278 
	C386.807770,151.229355 386.593842,151.474106 386.143646,151.828705 
	C386.121429,151.678787 386.297638,151.385925 386.728821,151.022278 
z"/>
<path fill="#CBD5E1" opacity="1.000000" stroke="none"
	d="
M513.964355,151.747009 
	C513.803406,151.776276 513.553711,151.552704 513.148315,151.130737 
	C513.286926,151.119614 513.581360,151.306900 513.964355,151.747009 
z"/>
<path fill="#CBD5E1" opacity="1.000000" stroke="none"
	d="
M198.728943,209.011856 
	C198.840744,209.200989 198.674210,209.448166 198.327454,209.841522 
	C198.277222,209.701233 198.378342,209.395294 198.728943,209.011856 
z"/>
<path fill="#CBD5E1" opacity="1.000000" stroke="none"
	d="
M514.981018,152.710175 
	C514.761047,152.806534 514.507874,152.597855 514.147217,152.143463 
	C514.305115,152.112061 514.607788,152.281189 514.981018,152.710175 
z"/>
<path fill="#CBD5E1" opacity="1.000000" stroke="none"
	d="
M516.117798,153.683578 
	C515.931580,153.755447 515.637634,153.562546 515.184509,153.157074 
	C515.353516,153.102600 515.681824,153.260696 516.117798,153.683578 
z"/>
<path fill="#CBD5E1" opacity="1.000000" stroke="none"
	d="
M382.744049,157.020157 
	C382.779358,157.185608 382.563416,157.439392 382.144623,157.841064 
	C382.125427,157.695465 382.309113,157.401978 382.744049,157.020157 
z"/>
<path fill="#CBD5E1" opacity="1.000000" stroke="none"
	d="
M389.750793,148.044250 
	C389.814789,148.231369 389.598633,148.480225 389.148529,148.847092 
	C389.135406,148.709518 389.320740,148.423141 389.750793,148.044250 
z"/>
<path fill="#CBD5E1" opacity="1.000000" stroke="none"
	d="
M493.623505,202.208710 
	C479.584564,202.333786 465.210480,202.190704 450.836243,202.061371 
	C446.537537,202.022690 442.238464,202.022400 437.472595,201.956848 
	C455.766510,201.921387 474.527405,201.933609 493.623505,202.208710 
z"/>
<path fill="#CBD5E1" opacity="1.000000" stroke="none"
	d="
M382.190308,206.346649 
	C390.039398,206.130325 398.055786,206.061508 406.541687,205.989227 
	C399.334839,206.339233 391.658447,206.692688 383.519440,207.049210 
	C382.817169,206.874451 382.584076,206.688416 382.190308,206.346649 
z"/>
<path fill="#CBD5E1" opacity="1.000000" stroke="none"
	d="
M276.624725,208.645813 
	C257.143524,208.869476 237.277527,208.941223 217.411621,209.032288 
	C213.936630,209.048203 210.461990,209.145264 206.528992,209.299103 
	C207.619659,208.933472 209.167053,208.079193 210.717682,208.073273 
	C231.580505,207.993347 252.443771,208.025406 273.306885,208.060043 
	C274.284821,208.061661 275.262268,208.347168 276.624725,208.645813 
z"/>
<path fill="#CBD5E1" opacity="1.000000" stroke="none"
	d="
M328.128723,206.273224 
	C344.993408,206.099228 362.018585,206.084351 379.506073,206.135956 
	C379.483551,206.426331 378.998718,206.650208 377.786835,206.940903 
	C361.713165,207.009811 346.366516,207.011887 331.019867,207.013977 
	C330.566376,207.014206 330.112885,207.014450 329.318848,207.014709 
	C328.739105,206.831879 328.509430,206.637741 328.128723,206.273224 
z"/>
<path fill="#CBD5E1" opacity="1.000000" stroke="none"
	d="
M136.703583,208.723328 
	C135.299469,208.909836 133.577881,208.947906 131.429886,208.924622 
	C132.797684,208.767136 134.591888,208.671021 136.703583,208.723328 
z"/>
<path fill="#CBD5E1" opacity="1.000000" stroke="none"
	d="
M331.386353,207.198792 
	C346.366516,207.011887 361.713165,207.009811 377.527924,207.009735 
	C376.886871,207.331802 375.778473,207.926880 374.668396,207.930099 
	C361.004578,207.969681 347.340485,207.929657 333.676605,207.876450 
	C333.034698,207.873947 332.394073,207.555115 331.386353,207.198792 
z"/>
</svg>