<svg version="1.1" id="Layer_1" xmlns="http://www.w3.org/2000/svg" xmlns:xlink="http://www.w3.org/1999/xlink" x="0px" y="0px"
	 width="100%" viewBox="0 0 186 192" enable-background="new 0 0 186 192" xml:space="preserve">
<path fill="white" opacity="0.000000" stroke="none"
	d="
M99.000000,193.000000 
	C66.000000,193.000000 33.500004,193.000000 1.000004,193.000000 
	C1.000003,129.000000 1.000003,65.000015 1.000001,1.000013 
	C62.999989,1.000009 124.999977,1.000009 186.999969,1.000004 
	C186.999985,64.999985 186.999985,128.999969 187.000000,192.999969 
	C157.833328,193.000000 128.666672,193.000000 99.000000,193.000000 
M151.341370,126.427895 
	C151.567245,125.281326 151.793121,124.134750 151.939407,122.319572 
	C151.888275,121.873611 151.837143,121.427650 151.855331,120.092430 
	C151.864471,106.500168 152.097382,92.902130 151.747452,79.319122 
	C151.641403,75.203560 149.922974,71.129547 148.885422,66.502090 
	C148.390656,61.890888 148.349228,57.174553 147.309143,52.689819 
	C144.961655,42.567760 141.742569,32.716637 133.649063,25.458454 
	C128.105820,20.487307 119.674561,22.782366 116.785767,29.661373 
	C115.828819,31.940125 113.992249,33.849487 111.915108,36.858978 
	C110.169792,33.347240 109.259476,30.861115 107.812164,28.741690 
	C104.929382,24.520176 102.077286,20.195528 98.604645,16.481899 
	C95.068130,12.699955 90.225853,12.169865 86.880829,15.078977 
	C83.807426,17.751867 80.806824,20.882584 78.856422,24.410013 
	C68.594604,42.969128 66.014946,63.491581 65.163094,84.167389 
	C64.354263,103.798851 64.983391,123.424377 67.789780,142.986221 
	C69.664291,156.052521 73.260414,168.434479 79.996834,179.630554 
	C85.906364,189.452332 96.826286,190.697632 103.433731,179.700943 
	C106.226715,175.052612 108.747795,170.240906 111.822113,164.733826 
	C113.239853,167.252319 114.280266,169.061554 115.284264,170.890778 
	C119.854317,179.217072 130.682343,183.271835 137.859879,171.608597 
	C138.729218,170.195938 139.518814,168.734253 140.347702,167.296646 
	C147.522369,154.852936 149.521423,141.028107 151.341370,126.427895 
M29.904018,52.467922 
	C-3.353670,100.111824 20.616692,158.921799 65.284714,174.860016 
	C63.701168,172.316788 61.685204,170.109467 59.874981,167.744659 
	C45.245861,148.633652 39.684269,126.317589 38.146053,102.947327 
	C37.026051,85.931007 41.662964,69.521553 47.719109,53.855267 
	C50.879227,45.680542 56.813351,38.583969 61.426888,30.959490 
	C62.180187,29.714567 62.582008,28.256968 63.146278,26.897665 
	C61.630722,26.932220 59.781326,26.410099 58.651405,27.087709 
	C47.730885,33.636703 38.202160,41.827507 29.904018,52.467922 
M161.098892,84.079193 
	C160.761520,91.359451 160.041595,98.649445 160.226547,105.916412 
	C160.342270,110.463196 161.543091,115.057449 162.845322,119.456238 
	C163.272858,120.900330 165.470856,122.532249 167.005569,122.694542 
	C168.088028,122.809021 169.937195,120.812958 170.554382,119.376831 
	C175.634903,107.555420 174.873932,95.379692 171.830475,83.297699 
	C171.189667,80.753845 168.594284,78.702354 166.899536,76.423996 
	C165.181076,78.414864 163.456177,80.400261 161.752426,82.403648 
	C161.543686,82.649078 161.448273,82.990883 161.098892,84.079193 
z"/>
<path fill="#0C0C0C" opacity="1.000000" stroke="none"
	d="
M151.786026,120.981689 
	C151.837143,121.427650 151.888275,121.873611 151.769958,122.850708 
	C151.426712,124.616371 151.252899,125.850906 151.079102,127.085442 
	C149.521423,141.028107 147.522369,154.852936 140.347702,167.296646 
	C139.518814,168.734253 138.729218,170.195938 137.859879,171.608597 
	C130.682343,183.271835 119.854317,179.217072 115.284264,170.890778 
	C114.280266,169.061554 113.239853,167.252319 111.822113,164.733826 
	C108.747795,170.240906 106.226715,175.052612 103.433731,179.700943 
	C96.826286,190.697632 85.906364,189.452332 79.996834,179.630554 
	C73.260414,168.434479 69.664291,156.052521 67.789780,142.986221 
	C64.983391,123.424377 64.354263,103.798851 65.163094,84.167389 
	C66.014946,63.491581 68.594604,42.969128 78.856422,24.410013 
	C80.806824,20.882584 83.807426,17.751867 86.880829,15.078977 
	C90.225853,12.169865 95.068130,12.699955 98.604645,16.481899 
	C102.077286,20.195528 104.929382,24.520176 107.812164,28.741690 
	C109.259476,30.861115 110.169792,33.347240 111.915108,36.858978 
	C113.992249,33.849487 115.828819,31.940125 116.785767,29.661373 
	C119.674561,22.782366 128.105820,20.487307 133.649063,25.458454 
	C141.742569,32.716637 144.961655,42.567760 147.309143,52.689819 
	C148.349228,57.174553 148.390656,61.890888 148.855438,67.074783 
	C147.648849,68.300537 146.472214,68.953590 145.263748,69.568497 
	C145.231903,69.530334 145.045502,69.407021 145.006134,69.284004 
	C144.966766,69.160988 144.914505,68.907997 144.816849,68.657661 
	C144.485886,67.919212 144.252563,67.431091 143.843781,66.649841 
	C142.707443,64.799591 141.884445,63.134197 140.761551,61.704304 
	C136.151642,55.834019 131.657730,56.318359 128.297592,63.034195 
	C127.482292,64.663719 126.673477,66.379860 126.329414,68.147232 
	C124.907661,75.450546 123.120399,82.740860 122.470718,90.124237 
	C121.111290,105.573708 121.420761,120.985176 127.246048,135.716019 
	C128.704132,139.403168 130.473724,144.383194 135.085327,143.303528 
	C138.260223,142.560226 141.498383,138.815796 143.146240,135.609802 
	C145.453796,131.120316 146.308014,125.883804 148.187851,120.969452 
	C149.656494,120.975266 150.721268,120.978477 151.786026,120.981689 
M81.959801,93.651314 
	C81.855141,110.670105 82.457436,127.669395 87.569717,144.036148 
	C89.473564,150.131241 92.633286,155.949081 95.960815,161.445023 
	C98.277718,165.271744 102.488724,164.498703 105.752670,162.451187 
	C108.023582,161.026611 110.566833,159.741837 109.628250,155.448364 
	C106.974739,143.310104 103.881088,131.041580 103.329269,118.718330 
	C102.235939,94.302094 102.131187,69.771400 109.237396,45.918278 
	C110.514114,41.632771 108.422722,38.854248 104.377083,37.448399 
	C99.465424,35.741615 97.107086,37.153671 93.156288,43.804375 
	C84.181351,58.912590 83.217247,75.838203 81.959801,93.651314 
z"/>
<path fill="#0D0D0D" opacity="1.000000" stroke="none"
	d="
M30.134449,52.192284 
	C38.202160,41.827507 47.730885,33.636703 58.651405,27.087709 
	C59.781326,26.410099 61.630722,26.932220 63.146278,26.897665 
	C62.582008,28.256968 62.180187,29.714567 61.426888,30.959490 
	C56.813351,38.583969 50.879227,45.680542 47.719109,53.855267 
	C41.662964,69.521553 37.026051,85.931007 38.146053,102.947327 
	C39.684269,126.317589 45.245861,148.633652 59.874981,167.744659 
	C61.685204,170.109467 63.701168,172.316788 65.284714,174.860016 
	C20.616692,158.921799 -3.353670,100.111824 30.134449,52.192284 
z"/>
<path fill="#0D0D0D" opacity="1.000000" stroke="none"
	d="
M161.199615,83.683609 
	C161.448273,82.990883 161.543686,82.649078 161.752426,82.403648 
	C163.456177,80.400261 165.181076,78.414864 166.899536,76.423996 
	C168.594284,78.702354 171.189667,80.753845 171.830475,83.297699 
	C174.873932,95.379692 175.634903,107.555420 170.554382,119.376831 
	C169.937195,120.812958 168.088028,122.809021 167.005569,122.694542 
	C165.470856,122.532249 163.272858,120.900330 162.845322,119.456238 
	C161.543091,115.057449 160.342270,110.463196 160.226547,105.916412 
	C160.041595,98.649445 160.761520,91.359451 161.199615,83.683609 
z"/>
<path fill="#0D0D0D" opacity="1.000000" stroke="none"
	d="
M145.295593,69.606651 
	C146.472214,68.953590 147.648849,68.300537 148.884277,67.341988 
	C149.922974,71.129547 151.641403,75.203560 151.747452,79.319122 
	C152.097382,92.902130 151.864471,106.500168 151.820679,120.537064 
	C150.721268,120.978477 149.656494,120.975266 148.251572,120.545807 
	C150.903397,103.065544 149.084534,86.285210 145.103745,69.629807 
	C145.168274,69.628082 145.295593,69.606651 145.295593,69.606651 
z"/>
<path fill="#0D0D0D" opacity="1.000000" stroke="none"
	d="
M151.210236,126.756668 
	C151.252899,125.850906 151.426712,124.616371 151.809753,123.185013 
	C151.793121,124.134750 151.567245,125.281326 151.210236,126.756668 
z"/>
<path fill="#000000" opacity="0.000000" stroke="none"
	d="
M81.962532,93.178162 
	C83.217247,75.838203 84.181351,58.912590 93.156288,43.804375 
	C97.107086,37.153671 99.465424,35.741615 104.377083,37.448399 
	C108.422722,38.854248 110.514114,41.632771 109.237396,45.918278 
	C102.131187,69.771400 102.235939,94.302094 103.329269,118.718330 
	C103.881088,131.041580 106.974739,143.310104 109.628250,155.448364 
	C110.566833,159.741837 108.023582,161.026611 105.752670,162.451187 
	C102.488724,164.498703 98.277718,165.271744 95.960815,161.445023 
	C92.633286,155.949081 89.473564,150.131241 87.569717,144.036148 
	C82.457436,127.669395 81.855141,110.670105 81.962532,93.178162 
z"/>
<path fill="#000000" opacity="0.000000" stroke="none"
	d="
M145.039215,69.631531 
	C149.084534,86.285210 150.903397,103.065544 147.847687,120.543213 
	C146.308014,125.883804 145.453796,131.120316 143.146240,135.609802 
	C141.498383,138.815796 138.260223,142.560226 135.085327,143.303528 
	C130.473724,144.383194 128.704132,139.403168 127.246048,135.716019 
	C121.420761,120.985176 121.111290,105.573708 122.470718,90.124237 
	C123.120399,82.740860 124.907661,75.450546 126.329414,68.147232 
	C126.673477,66.379860 127.482292,64.663719 128.297592,63.034195 
	C131.657730,56.318359 136.151642,55.834019 140.761551,61.704304 
	C141.884445,63.134197 142.707443,64.799591 143.876205,66.929352 
	C144.360901,67.970673 144.637695,68.439331 144.914505,68.907997 
	C144.914505,68.907997 144.966766,69.160988 145.004852,69.338806 
	C145.042923,69.516632 145.039215,69.631531 145.039215,69.631531 
z"/>
<path fill="#0D0D0D" opacity="1.000000" stroke="none"
	d="
M144.816849,68.657661 
	C144.637695,68.439331 144.360901,67.970673 144.051666,67.222488 
	C144.252563,67.431091 144.485886,67.919212 144.816849,68.657661 
z"/>
<path fill="#000000" opacity="1.000000" stroke="none"
	d="
M145.103745,69.629807 
	C145.039215,69.631531 145.042923,69.516632 145.044220,69.461823 
	C145.045502,69.407021 145.231903,69.530334 145.263748,69.568497 
	C145.295593,69.606651 145.168274,69.628082 145.103745,69.629807 
z"/>
</svg>