<?xml version="1.0" standalone="no"?>
<!DOCTYPE svg PUBLIC "-//W3C//DTD SVG 20010904//EN"
 "http://www.w3.org/TR/2001/REC-SVG-20010904/DTD/svg10.dtd">
<svg version="1.0" xmlns="http://www.w3.org/2000/svg"
 width="336.000000pt" height="336.000000pt" viewBox="0 0 336.000000 336.000000"
 preserveAspectRatio="xMidYMid meet">
<metadata>
Created by potrace 1.14, written by Peter Selinger 2001-2017
</metadata>
<g transform="translate(0.000000,336.000000) scale(0.100000,-0.100000)"
fill="#000000" stroke="none">
<path d="M1663 2801 c-94 -48 -175 -203 -233 -444 -28 -117 -32 -137 -46 -237
-3 -25 -8 -56 -10 -70 -18 -116 -24 -499 -10 -655 15 -168 18 -193 42 -315 50
-259 126 -444 215 -524 124 -111 234 -35 351 244 l15 34 38 -73 c83 -158 188
-185 285 -74 49 55 105 184 139 314 27 108 35 149 47 244 2 22 7 46 9 52 7 20
18 247 18 373 0 95 -6 218 -18 345 -9 96 -63 352 -85 400 -5 11 -19 45 -31 75
-13 30 -31 67 -41 82 -10 14 -18 29 -18 33 0 12 -75 77 -100 87 -67 25 -150
-30 -207 -139 -30 -56 -40 -64 -50 -35 -16 46 -82 181 -99 201 -77 94 -141
119 -211 82z m270 -322 c27 -22 36 -36 32 -48 -13 -31 -64 -246 -71 -296 -3
-27 -8 -58 -10 -68 -19 -102 -26 -538 -12 -707 11 -118 35 -261 59 -350 12
-41 22 -82 24 -90 2 -8 4 -16 5 -17 13 -16 -35 -87 -52 -77 -4 3 -9 0 -13 -6
-8 -13 -51 -13 -78 1 -32 17 -77 61 -77 76 0 7 -4 13 -9 13 -14 0 -66 135 -90
231 -36 150 -53 304 -54 494 -1 160 6 302 17 360 2 11 7 40 11 65 22 142 92
338 142 395 56 64 117 72 176 24z m425 -268 c22 -29 70 -135 77 -176 5 -22 9
-44 11 -50 35 -138 38 -469 5 -630 -40 -203 -115 -313 -187 -274 -24 12 -72
82 -78 111 -2 7 -8 25 -14 40 -59 143 -73 550 -26 747 9 36 17 71 18 76 16 75
85 193 105 181 4 -3 13 -1 21 4 16 10 48 -4 68 -29z"/>
<path d="M1370 2679 c0 -4 -13 -10 -30 -14 -16 -4 -30 -10 -30 -14 0 -3 -12
-12 -27 -18 -27 -12 -51 -26 -82 -50 -9 -7 -40 -29 -68 -51 -84 -61 -155 -133
-231 -231 -33 -43 -94 -146 -121 -203 -61 -135 -88 -259 -90 -422 -5 -329 147
-640 418 -858 103 -82 222 -156 281 -173 22 -6 19 -2 -16 31 -45 43 -120 140
-150 194 -10 19 -22 37 -25 40 -10 7 -89 176 -89 188 0 6 -9 31 -19 55 -11 25
-22 58 -25 74 -3 15 -12 57 -20 93 -9 36 -19 92 -23 125 -10 78 -10 362 0 444
34 270 164 566 326 741 28 30 51 55 51 55 0 1 -7 2 -15 2 -8 0 -15 -4 -15 -8z"/>
<path d="M2687 1972 c-47 -54 -67 -160 -63 -332 3 -127 24 -215 60 -257 19
-22 25 -24 44 -14 50 27 76 131 76 301 0 120 -2 141 -22 220 -18 73 -66 115
-95 82z"/>
</g>
</svg>
