<svg version="1.1" id="Layer_1" xmlns="http://www.w3.org/2000/svg" xmlns:xlink="http://www.w3.org/1999/xlink" x="0px" y="0px"
	 width="100%" viewBox="0 0 1024 1024"  enable-background="new 0 0 1024 1024" xml:space="preserve">
<path fill="#CBD5E1" opacity="1.000000" stroke="none"
	d="
M364.890320,600.761230 
	C375.504944,601.485962 385.216614,603.446594 392.922241,610.796021 
	C395.351685,613.113220 396.885681,610.976562 398.500916,609.831604 
	C411.825623,600.386841 426.374298,598.619568 441.812347,603.019714 
	C459.609833,608.092346 471.606415,624.254211 472.283752,643.803711 
	C472.399109,647.132751 472.139130,650.482239 472.386627,653.797302 
	C472.706573,658.082581 470.687561,659.214783 466.743927,659.189453 
	C448.248505,659.070618 429.751892,659.141846 411.255707,659.146912 
	C403.735657,659.148987 402.944672,660.336487 406.336639,667.079773 
	C410.493439,675.343628 417.695404,679.180786 426.556458,679.552185 
	C435.305450,679.918884 442.676300,676.649963 446.867584,668.523682 
	C448.519928,665.320068 450.172180,664.554016 453.478973,665.776062 
	C458.000214,667.447021 462.643097,668.821899 467.298401,670.085754 
	C470.706146,671.010864 471.432648,672.590271 469.951202,675.855286 
	C462.467041,692.349243 449.297272,700.699097 431.700958,702.231750 
	C416.474915,703.557983 403.076996,699.078308 392.194397,687.979431 
	C391.747742,687.523926 391.141479,687.224854 390.397552,686.704651 
	C388.021759,688.909851 385.911407,691.306641 383.389923,693.137024 
	C368.511688,703.938049 352.321747,705.533691 335.655884,698.397339 
	C324.376129,693.567261 318.463074,684.232056 318.852325,671.827393 
	C319.236694,659.577576 325.851746,651.280579 337.121735,646.791443 
	C347.625824,642.607483 358.973785,642.721802 369.918396,640.777222 
	C373.697723,640.105774 377.594849,639.440552 378.363922,635.125000 
	C379.133545,630.806335 376.784393,627.443054 373.075470,625.176636 
	C363.641693,619.411804 348.044769,622.763611 344.948669,634.488953 
	C344.228851,637.214905 342.686005,637.806641 340.161499,637.245544 
	C334.965485,636.090698 329.747101,635.036255 324.535370,633.952637 
	C321.537903,633.329468 320.432922,631.908386 321.374695,628.643372 
	C325.925964,612.864990 337.320679,605.128845 352.502075,601.779602 
	C356.408478,600.917786 360.397797,600.529419 364.890320,600.761230 
M378.614319,660.721252 
	C378.596710,658.909241 378.309235,657.173950 375.917267,657.542725 
	C368.542358,658.679749 361.098175,659.557678 353.847076,661.248657 
	C347.874847,662.641418 344.784790,667.415161 345.389465,672.542725 
	C345.982422,677.570679 350.264221,681.200684 356.260040,681.758667 
	C369.261963,682.968628 376.853851,676.097900 378.614319,660.721252 
M419.509247,640.588684 
	C428.098816,640.588684 436.688385,640.588684 444.902527,640.588684 
	C446.211395,637.954163 445.438873,636.241394 444.822357,634.539185 
	C440.889526,623.681091 425.299896,619.234680 414.184814,625.716736 
	C409.927826,628.199341 407.259033,631.862427 405.685577,636.405823 
	C404.797882,638.969116 405.359253,640.654602 408.531830,640.596497 
	C411.858673,640.535583 415.187500,640.586243 419.509247,640.588684 
z"/>
<path fill="#CBD5E1" opacity="1.000000" stroke="none"
	d="
M724.224121,274.933929 
	C724.887573,311.915955 755.722717,344.399689 792.549805,347.756500 
	C801.963074,348.614502 811.129761,348.124969 820.274902,345.937195 
	C821.670471,345.603302 823.158630,344.963867 824.623108,345.855560 
	C816.562561,364.952759 783.449097,390.123383 742.574158,383.095306 
	C706.519165,376.895905 675.028381,345.850616 677.608704,301.548553 
	C679.308838,272.359100 708.437805,237.084702 734.335938,235.243652 
	C727.948303,247.826202 723.535522,260.550232 724.224121,274.933929 
z"/>
<path fill="#CBD5E1" opacity="1.000000" stroke="none"
	d="
M217.656097,465.999939 
	C217.655960,450.516174 217.768677,435.531036 217.582626,420.549622 
	C217.531860,416.461914 218.834991,414.827423 222.995041,415.013733 
	C228.311600,415.251831 233.649872,415.156067 238.974121,415.021088 
	C242.808777,414.923889 244.266251,416.540710 244.231216,420.392914 
	C244.105530,434.209930 244.181152,448.029053 244.241577,461.847107 
	C244.248489,463.427826 243.695190,465.145691 244.992462,466.806427 
	C245.569794,466.492981 246.152069,466.248535 246.655991,465.893005 
	C274.258392,446.420410 309.864105,461.436005 315.251953,494.794922 
	C317.598999,509.326874 316.438507,523.312317 309.117615,536.394226 
	C297.488098,557.175293 269.180389,564.766907 250.397995,552.106689 
	C248.220566,550.638977 246.286224,548.810669 244.238968,547.148193 
	C244.007614,547.332764 243.586578,547.505493 243.572678,547.706421 
	C242.998947,555.993103 243.003555,555.994507 234.401138,556.006104 
	C230.904984,556.010803 227.388031,555.769531 223.917725,556.069824 
	C219.200226,556.478027 217.529358,554.813110 217.564209,549.908569 
	C217.761749,522.106873 217.657791,494.303040 217.656097,465.999939 
M256.513855,483.890381 
	C241.089615,490.805359 239.238403,517.404358 252.088196,528.550964 
	C260.977905,536.262451 275.532715,535.453430 283.190186,526.721191 
	C287.210175,522.137024 288.879852,516.561707 289.416290,510.714203 
	C291.530884,487.663422 273.364868,476.540985 256.513855,483.890381 
z"/>
<path fill="#CBD5E1" opacity="1.000000" stroke="none"
	d="
M506.164124,549.008911 
	C491.241486,560.682800 475.423218,560.901367 459.580933,552.623108 
	C442.823364,543.866516 435.820465,528.638977 434.722992,510.358246 
	C434.100922,499.996338 436.367004,490.199707 441.115051,480.958282 
	C453.222198,457.393402 485.822021,450.128632 505.970093,465.707886 
	C507.288452,464.492310 506.683319,462.900146 506.689148,461.505554 
	C506.744934,448.178131 506.957794,434.844666 506.621918,421.525635 
	C506.490387,416.308807 508.462982,414.750549 513.279114,415.022858 
	C517.762817,415.276337 522.285645,415.293884 526.766663,415.017151 
	C531.661926,414.714874 533.423950,416.422852 533.397095,421.559998 
	C533.198425,459.542755 533.267456,497.526978 533.284668,535.510742 
	C533.287170,541.004822 533.260925,546.512695 533.637390,551.987366 
	C533.845154,555.009094 532.540833,555.936218 529.973450,555.949524 
	C523.976624,555.980713 517.979492,555.944214 511.982483,555.947327 
	C509.356018,555.948669 508.008209,554.638062 507.771454,552.040894 
	C507.668976,550.916626 507.778687,549.645142 506.164124,549.008911 
M495.052643,484.320557 
	C480.742798,477.974365 467.178284,483.921631 462.899811,498.391846 
	C460.850525,505.322662 461.059937,512.220032 463.451965,518.977539 
	C468.558167,533.402893 485.987518,538.486877 497.900604,529.482666 
	C510.742950,519.776062 510.008789,491.133484 495.052643,484.320557 
z"/>
<path fill="#CBD5E1" opacity="1.000000" stroke="none"
	d="
M628.383362,682.505127 
	C612.915222,658.433167 616.509766,628.172607 637.305603,611.199463 
	C652.731445,598.609192 670.365356,597.654663 688.147278,605.280273 
	C705.145020,612.569763 712.440430,627.170898 713.156921,644.798523 
	C713.851746,661.894104 715.420959,658.890381 699.226868,659.082458 
	C683.399536,659.270203 667.568237,659.118408 651.738831,659.156616 
	C649.947266,659.160950 648.071167,658.749207 646.395569,659.758179 
	C646.137573,668.061218 653.484070,676.567810 662.629700,678.606079 
	C674.061157,681.153687 682.069641,677.875549 688.499451,667.806213 
	C689.640198,666.019714 690.728821,665.039795 692.900024,665.695984 
	C698.317627,667.333435 703.734558,668.978271 709.186157,670.496521 
	C712.746765,671.488220 711.813965,673.718933 710.854492,675.950745 
	C704.194153,691.442444 692.095947,700.108337 675.709106,701.994873 
	C656.775330,704.174561 640.470154,698.592957 628.383362,682.505127 
M669.225708,623.119080 
	C656.155579,622.826599 647.443542,629.249634 646.800415,639.863037 
	C647.332153,640.065308 647.924011,640.484802 648.517761,640.487549 
	C660.155945,640.541382 671.794312,640.563049 683.432678,640.553101 
	C687.468750,640.549683 687.118652,637.888672 686.204651,635.374573 
	C683.485229,627.894775 677.934326,624.000000 669.225708,623.119080 
z"/>
<path fill="#CBD5E1" opacity="1.000000" stroke="none"
	d="
M707.612854,539.500061 
	C695.495117,555.839844 676.500244,562.391113 655.806152,556.848083 
	C636.215088,551.600342 624.613403,538.380798 620.798096,518.621704 
	C617.650085,502.318237 620.399536,486.992401 631.207092,473.970612 
	C644.567993,457.872345 662.077637,453.954010 681.695862,458.854919 
	C700.031738,463.435394 709.724731,476.263336 713.244690,494.319794 
	C714.205811,499.249908 714.246155,504.224091 714.334656,509.223511 
	C714.412598,513.623169 712.933472,515.392700 708.239746,515.338257 
	C689.428528,515.120178 670.613098,515.246582 651.799255,515.270203 
	C646.159973,515.277283 645.465332,516.184937 647.590820,521.285339 
	C651.300659,530.187805 658.463928,534.708252 667.713379,535.457458 
	C676.589783,536.176331 684.249573,533.234558 688.710754,524.918701 
	C690.282837,521.988281 691.870056,521.144531 695.024231,522.241394 
	C699.573975,523.823547 704.220703,525.175842 708.901611,526.316223 
	C712.552673,527.205688 713.049255,529.112488 711.498291,532.121826 
	C710.280334,534.484863 709.045349,536.839050 707.612854,539.500061 
M649.371094,496.517151 
	C660.690979,496.542786 672.011536,496.510437 683.330444,496.627319 
	C687.008362,496.665314 688.048218,495.430084 686.918518,491.792511 
	C684.359131,483.551636 677.182678,478.985657 666.544373,479.193512 
	C657.682556,479.366638 649.492249,485.320160 647.673706,492.884460 
	C647.349182,494.234161 647.045654,495.527008 649.371094,496.517151 
z"/>
<path fill="#CBD5E1" opacity="1.000000" stroke="none"
	d="
M359.925171,459.646179 
	C379.530579,454.186096 397.202026,456.489197 411.226013,471.697998 
	C421.740540,483.100861 423.420441,497.521545 422.287659,512.403076 
	C422.040253,515.653564 419.480499,515.199463 417.401642,515.210083 
	C406.072174,515.268066 394.742340,515.254700 383.412628,515.262573 
	C375.581818,515.268005 367.750549,515.219666 359.920319,515.288574 
	C355.123871,515.330811 354.339508,516.493896 356.100311,521.082642 
	C359.595856,530.192200 366.826843,534.604370 376.048248,535.408386 
	C384.470367,536.142761 392.134460,533.649292 396.534363,525.777527 
	C398.694855,521.912231 400.811707,520.993042 404.847839,522.586304 
	C408.857056,524.168884 413.084167,525.256470 417.283997,526.281311 
	C420.768188,527.131470 421.442505,528.779663 420.056152,532.021606 
	C413.833618,546.572449 402.733917,555.141846 387.383972,557.696228 
	C363.298370,561.704285 341.796936,551.577332 332.498444,529.378296 
	C321.697357,503.592102 330.809998,470.510742 359.925171,459.646179 
M395.627350,492.860901 
	C392.268951,482.492462 384.250122,477.864227 372.177124,479.326019 
	C363.496307,480.377106 356.350281,487.685608 355.904022,496.552582 
	C368.336884,496.552582 380.746735,496.562531 393.156494,496.541962 
	C395.033630,496.538849 395.813568,495.441864 395.627350,492.860901 
z"/>
<path fill="#CBD5E1" opacity="1.000000" stroke="none"
	d="
M275.944031,633.271790 
	C270.724426,626.228821 263.671417,623.920410 255.980591,626.468140 
	C249.008820,628.777649 244.425232,635.442078 244.363205,643.991638 
	C244.244797,660.309326 244.147858,676.631165 244.415100,692.945129 
	C244.496490,697.913635 243.130768,699.883545 237.967758,699.480164 
	C232.671265,699.066467 227.314621,699.266785 221.990631,699.419250 
	C218.720642,699.512817 217.631699,698.127625 217.638367,694.975464 
	C217.699585,666.002014 217.700974,637.028259 217.630585,608.054871 
	C217.622742,604.834167 218.843307,603.579712 222.041061,603.665894 
	C227.199142,603.805054 232.380005,603.947998 237.521027,603.618225 
	C242.100967,603.324402 244.041138,604.972656 243.422882,609.557922 
	C243.338715,610.182190 243.577713,610.850037 243.698502,611.725403 
	C245.937714,611.782166 246.861572,609.949829 248.154678,608.883667 
	C265.733429,594.390137 293.816986,600.742737 301.971802,621.173889 
	C304.078735,626.452637 305.206451,632.033936 305.227905,637.733521 
	C305.298096,656.382935 305.151154,675.033752 305.330200,693.681763 
	C305.371368,697.969666 304.124786,699.736145 299.653656,699.468933 
	C294.343994,699.151550 288.990784,699.185608 283.675995,699.454346 
	C279.645782,699.658081 278.541321,698.031860 278.581482,694.204956 
	C278.743866,678.720703 278.667816,663.233765 278.645447,647.747864 
	C278.638458,642.893799 278.056519,638.123291 275.944031,633.271790 
z"/>
<path fill="#CBD5E1" opacity="1.000000" stroke="none"
	d="
M610.351685,623.743896 
	C610.531311,627.199402 608.660217,627.911255 606.212646,627.850586 
	C602.551514,627.759827 598.892029,627.596741 595.232544,627.446045 
	C592.507751,627.333862 591.318909,628.589600 591.332336,631.342407 
	C591.391541,643.505615 591.205200,655.672363 591.443176,667.831299 
	C591.564697,674.040161 594.914490,676.690308 601.617737,676.812256 
	C610.348999,676.971008 610.348999,676.970947 610.355835,685.620667 
	C610.356506,686.453796 610.357300,687.286865 610.357056,688.119995 
	C610.353760,699.948181 610.353760,699.948242 598.422668,701.042114 
	C578.549377,702.864075 564.832153,690.476013 564.741821,670.560547 
	C564.685120,658.063965 564.601196,645.565369 564.778137,633.071167 
	C564.834106,629.116150 563.347839,627.888672 559.526245,627.820190 
	C547.692566,627.608337 547.694824,627.487183 547.686523,615.709351 
	C547.685791,614.709595 547.684509,613.709900 547.684143,612.710144 
	C547.681519,604.662354 547.681580,604.662292 555.451416,603.605713 
	C561.982666,602.717590 566.361023,598.181885 566.754883,591.588562 
	C566.983154,587.768433 566.934326,583.925781 566.864868,580.095825 
	C566.808289,576.975830 568.038513,575.537170 571.302979,575.630676 
	C576.463928,575.778503 581.637634,575.807068 586.795837,575.615173 
	C590.366577,575.482300 591.435181,577.077087 591.363159,580.397278 
	C591.225830,586.725769 591.458069,593.062927 591.293396,599.390137 
	C591.207764,602.680298 592.498474,603.875854 595.704834,603.723145 
	C599.195557,603.556946 602.704163,603.797607 606.199280,603.684387 
	C609.147278,603.588867 610.442932,604.746948 610.371277,607.780273 
	C610.249390,612.942627 610.350525,618.110168 610.351685,623.743896 
z"/>
<path fill="#CBD5E1" opacity="1.000000" stroke="none"
	d="
M495.526337,581.515015 
	C494.652527,576.929382 496.283234,575.321411 500.540466,575.570984 
	C505.354156,575.853149 510.199341,575.763306 515.024719,575.623718 
	C518.254272,575.530273 519.462830,576.848877 519.396118,580.046997 
	C519.264099,586.372498 519.502075,592.706299 519.343140,599.030518 
	C519.256897,602.458923 520.501221,603.904114 523.989685,603.719666 
	C527.476868,603.535278 530.985413,603.790222 534.478455,603.671692 
	C537.384583,603.573181 538.795776,604.633423 538.719971,607.700317 
	C538.588440,613.017883 538.592712,618.340393 538.635132,623.660034 
	C538.658142,626.548279 537.465088,628.020996 534.477783,627.880676 
	C530.820923,627.708984 527.160034,627.620239 523.504211,627.432007 
	C520.509949,627.277893 519.338623,628.667419 519.357727,631.616638 
	C519.430115,642.774475 519.185242,653.937988 519.455994,665.089722 
	C519.685974,674.561951 522.524597,676.938477 532.144409,676.790222 
	C538.979065,676.684814 538.903748,676.681152 538.557312,683.693237 
	C538.385071,687.179810 538.373413,690.694824 538.609985,694.175171 
	C538.828369,697.387451 537.683533,699.122253 534.484802,699.848328 
	C525.979492,701.778931 517.582031,701.704346 509.490784,698.307800 
	C497.240295,693.165588 493.150330,682.825012 492.879364,670.550415 
	C492.607452,658.232117 492.613190,645.898804 492.902771,633.581604 
	C493.014343,628.837769 491.067261,627.530701 486.775177,627.397705 
	C475.809357,627.058167 475.812866,626.943970 475.809418,616.033020 
	C475.809204,615.366882 475.809448,614.700684 475.809509,614.034546 
	C475.810577,605.109863 475.810547,605.109802 484.349609,603.523132 
	C490.828217,602.319336 494.268250,598.177185 495.325653,589.923645 
	C495.661957,587.298706 495.485901,584.608215 495.526337,581.515015 
z"/>
<path fill="#CBD5E1" opacity="1.000000" stroke="none"
	d="
M615.036011,480.791077 
	C615.319153,485.192810 613.586670,486.371002 609.649353,486.176910 
	C592.032654,485.308624 584.746460,491.396362 582.945679,508.902924 
	C581.545715,522.512390 582.454773,536.211914 582.506104,549.866638 
	C582.524414,554.735352 580.928589,556.387085 576.176270,556.089233 
	C570.862671,555.756287 565.513916,555.913513 560.181763,555.973633 
	C557.051270,556.008850 555.696228,554.723633 555.702271,551.497253 
	C555.757080,522.331726 555.752625,493.165894 555.689758,464.000336 
	C555.682556,460.646301 557.290527,459.674042 560.323425,459.731934 
	C565.487915,459.830444 570.670288,459.994110 575.817993,459.682617 
	C580.516479,459.398376 582.764954,460.965240 582.166504,465.875397 
	C582.032593,466.974426 582.286743,468.120819 582.422791,470.148743 
	C589.413208,462.386627 597.810730,459.379059 607.253601,458.948761 
	C614.309937,458.627167 615.077515,459.394836 615.069153,466.317139 
	C615.063477,470.983612 615.051758,475.650055 615.036011,480.791077 
z"/>
<path fill="#CBD5E1" opacity="1.000000" stroke="none"
	d="
M728.758057,607.227661 
	C728.876892,603.951782 730.825989,603.704468 732.962769,603.704102 
	C738.620239,603.703125 744.283997,603.859497 749.932983,603.638977 
	C753.959167,603.481750 755.481567,605.074768 754.751709,608.972229 
	C754.471436,610.469543 754.506714,611.935303 755.523132,613.827759 
	C761.045898,607.793457 767.673157,604.108093 775.695984,603.266235 
	C777.346375,603.093018 778.999268,602.848206 780.653625,602.825439 
	C787.254089,602.734314 787.509338,603.057739 787.436707,609.808350 
	C787.377686,615.298828 787.378540,620.790344 787.407410,626.281189 
	C787.421265,628.919312 786.643921,630.122437 783.579407,629.873047 
	C765.142456,628.372559 755.683105,636.953979 755.419617,655.462036 
	C755.242065,667.939209 755.393616,680.421021 755.367859,692.900635 
	C755.354553,699.363403 755.325073,699.370117 748.655579,699.386475 
	C744.162903,699.397461 739.647156,699.100708 735.183655,699.460693 
	C730.226868,699.860474 728.567261,698.222839 728.610352,693.065857 
	C728.848206,664.614075 728.730408,636.159302 728.758057,607.227661 
z"/>
</svg>