<svg version="1.1" id="Layer_1" xmlns="http://www.w3.org/2000/svg" xmlns:xlink="http://www.w3.org/1999/xlink" x="0px" y="0px"
	 width="100%" viewBox="0 0 500 500" enable-background="new 0 0 500 500" xml:space="preserve">
<path  opacity="0.000000" stroke="none"
	d="
M458.000000,501.000000 
	C305.333374,501.000000 153.166733,501.000000 1.000082,501.000000 
	C1.000054,334.333405 1.000054,167.666824 1.000027,1.000171 
	C167.666550,1.000114 334.333099,1.000114 500.999756,1.000057 
	C500.999817,167.666519 500.999817,334.333038 500.999908,500.999756 
	C486.833344,501.000000 472.666656,501.000000 458.000000,501.000000 
M235.008789,245.289627 
	C231.864197,227.889038 215.414688,215.442841 195.094482,222.703735 
	C184.205612,226.594604 177.157501,235.725571 176.267563,247.462601 
	C176.168503,258.320526 176.051041,269.178375 176.015778,280.036499 
	C176.013657,280.693146 176.665878,281.351898 177.770828,282.344543 
	C182.576248,282.577423 187.595276,285.030518 191.992752,280.042297 
	C191.931625,268.479065 191.870514,256.915833 192.161240,244.705460 
	C193.633316,242.539261 194.937607,240.232346 196.611923,238.235748 
	C200.247543,233.900345 209.659836,233.680878 213.303741,238.040665 
	C215.578552,240.762360 217.163040,244.061035 219.043518,248.022171 
	C219.022049,258.239410 218.966064,268.456879 219.027863,278.673615 
	C219.034683,279.802490 219.714706,280.927246 220.831375,282.382568 
	C225.622299,282.578491 230.617050,284.961365 235.019211,280.114502 
	C234.999771,268.769196 234.980331,257.423889 235.008789,245.289627 
M279.137268,256.927795 
	C286.680359,256.957581 294.225220,257.076813 301.764648,256.924957 
	C302.956818,256.900879 304.124268,255.652771 305.776245,254.316147 
	C307.770111,231.357758 293.061951,216.644836 268.423584,220.092010 
	C263.482788,220.783279 258.012817,223.347000 254.399002,226.756302 
	C245.299988,235.340363 243.792725,246.889999 245.157593,258.748840 
	C245.580658,262.424927 246.713943,266.551788 248.911026,269.401367 
	C259.930725,283.693756 280.906677,287.288696 296.517090,277.453552 
	C299.177277,275.777557 301.876373,273.921814 300.019653,270.493469 
	C297.029816,264.972900 291.972595,262.656067 288.432617,264.950897 
	C282.291321,268.932098 275.605652,268.769958 269.352203,266.555450 
	C266.198822,265.438782 264.043976,261.502472 261.351471,258.753113 
	C262.778076,257.621582 263.024292,257.255463 263.281952,257.247192 
	C268.265533,257.087067 273.250458,256.968781 279.137268,256.927795 
M166.039505,247.000381 
	C164.847137,235.021561 158.249908,227.164993 147.680511,221.874222 
	C142.607559,219.334808 137.561874,219.759842 132.306686,219.877167 
	C122.815521,220.089066 115.491447,224.127991 109.554855,231.412094 
	C103.707008,238.587265 103.672302,247.080795 103.812981,255.485184 
	C104.072403,270.983032 113.160278,281.376648 129.078186,282.409058 
	C135.438354,282.821533 141.965286,280.663025 148.660889,279.637360 
	C150.167679,283.568146 160.218033,285.048706 165.869049,281.072174 
	C166.245743,280.288940 166.943863,279.508270 166.950150,278.722046 
	C167.025818,269.251923 167.024979,259.780823 166.954498,250.310623 
	C166.948288,249.473740 166.313217,248.641510 166.039505,247.000381 
M361.879456,265.546967 
	C362.859314,269.209991 364.132263,272.825775 364.733063,276.549927 
	C365.286652,279.981537 367.248108,280.961517 370.232147,280.975952 
	C374.849670,280.998291 379.467438,280.981842 384.135468,280.981842 
	C387.415131,269.187164 390.554321,258.009430 393.624512,246.812714 
	C395.376892,240.421875 397.112579,234.023438 398.673615,227.584244 
	C399.718018,223.276184 398.076050,221.255035 393.749420,221.021042 
	C385.648163,220.582932 385.558807,220.560944 383.561340,228.680176 
	C382.186707,234.267700 381.208740,239.952438 379.852966,245.545120 
	C378.867554,249.610062 377.554260,253.595535 376.387146,257.616455 
	C374.782013,256.530243 374.231659,255.443268 373.927338,254.291290 
	C372.321564,248.212204 370.692078,242.137222 369.229004,236.022964 
	C365.234833,219.331116 368.004059,221.284607 350.343719,220.886520 
	C346.394043,220.797455 344.925903,222.463028 344.143066,225.692123 
	C343.052307,230.191193 342.090790,234.723267 340.917603,239.200241 
	C339.331024,245.254929 337.596069,251.270721 335.924774,257.303223 
	C334.181793,255.627792 333.570496,254.122528 333.204987,252.559738 
	C331.430084,244.970963 329.754761,237.358902 327.979828,229.770126 
	C325.966736,221.163010 325.686188,220.968185 317.095428,221.008972 
	C311.214569,221.036896 309.769043,222.863098 311.307007,228.651291 
	C315.584869,244.750961 320.032623,260.806488 324.160400,276.944153 
	C324.949402,280.028595 326.431396,281.034729 329.305298,281.001831 
	C334.363068,280.943939 339.421997,280.985657 344.088562,280.985657 
	C347.698883,267.363800 351.066986,254.655746 354.435089,241.947723 
	C354.868866,241.846039 355.302612,241.744370 355.736389,241.642685 
	C357.730896,249.338074 359.725433,257.033447 361.879456,265.546967 
z"/>
<path fill="#CBD5E1" opacity="1.000000" stroke="none"
	d="
M361.799683,265.137878 
	C359.725433,257.033447 357.730896,249.338074 355.736389,241.642685 
	C355.302612,241.744370 354.868866,241.846039 354.435089,241.947723 
	C351.066986,254.655746 347.698883,267.363800 344.088562,280.985657 
	C339.421997,280.985657 334.363068,280.943939 329.305298,281.001831 
	C326.431396,281.034729 324.949402,280.028595 324.160400,276.944153 
	C320.032623,260.806488 315.584869,244.750961 311.307007,228.651291 
	C309.769043,222.863098 311.214569,221.036896 317.095428,221.008972 
	C325.686188,220.968185 325.966736,221.163010 327.979828,229.770126 
	C329.754761,237.358902 331.430084,244.970963 333.204987,252.559738 
	C333.570496,254.122528 334.181793,255.627792 335.924774,257.303223 
	C337.596069,251.270721 339.331024,245.254929 340.917603,239.200241 
	C342.090790,234.723267 343.052307,230.191193 344.143066,225.692123 
	C344.925903,222.463028 346.394043,220.797455 350.343719,220.886520 
	C368.004059,221.284607 365.234833,219.331116 369.229004,236.022964 
	C370.692078,242.137222 372.321564,248.212204 373.927338,254.291290 
	C374.231659,255.443268 374.782013,256.530243 376.387146,257.616455 
	C377.554260,253.595535 378.867554,249.610062 379.852966,245.545120 
	C381.208740,239.952438 382.186707,234.267700 383.561340,228.680176 
	C385.558807,220.560944 385.648163,220.582932 393.749420,221.021042 
	C398.076050,221.255035 399.718018,223.276184 398.673615,227.584244 
	C397.112579,234.023438 395.376892,240.421875 393.624512,246.812714 
	C390.554321,258.009430 387.415131,269.187164 384.135468,280.981842 
	C379.467438,280.981842 374.849670,280.998291 370.232147,280.975952 
	C367.248108,280.961517 365.286652,279.981537 364.733063,276.549927 
	C364.132263,272.825775 362.859314,269.209991 361.799683,265.137878 
z"/>
<path fill="#CBD5E1" opacity="1.000000" stroke="none"
	d="
M164.978760,281.087341 
	C160.218033,285.048706 150.167679,283.568146 148.660889,279.637360 
	C141.965286,280.663025 135.438354,282.821533 129.078186,282.409058 
	C113.160278,281.376648 104.072403,270.983032 103.812981,255.485184 
	C103.672302,247.080795 103.707008,238.587265 109.554855,231.412094 
	C115.491447,224.127991 122.815521,220.089066 132.306686,219.877167 
	C137.561874,219.759842 142.607559,219.334808 147.680511,221.874222 
	C158.249908,227.164993 164.847137,235.021561 165.919495,247.878174 
	C165.796112,254.501999 165.896225,260.250488 165.758194,265.993286 
	C165.637207,271.027985 165.248962,276.056244 164.978760,281.087341 
M120.828201,258.402496 
	C125.482040,269.487488 138.632187,270.866455 146.750473,261.589844 
	C151.366913,256.314697 150.797577,246.082626 145.907104,240.511993 
	C139.276230,232.958923 131.353088,233.881378 125.374207,238.403900 
	C118.505188,243.599716 118.999763,250.491348 120.828201,258.402496 
z"/>
<path fill="#CBD5E1" opacity="1.000000" stroke="none"
	d="
M278.235107,256.841888 
	C273.250458,256.968781 268.265533,257.087067 263.281952,257.247192 
	C263.024292,257.255463 262.778076,257.621582 261.351471,258.753113 
	C264.043976,261.502472 266.198822,265.438782 269.352203,266.555450 
	C275.605652,268.769958 282.291321,268.932098 288.432617,264.950897 
	C291.972595,262.656067 297.029816,264.972900 300.019653,270.493469 
	C301.876373,273.921814 299.177277,275.777557 296.517090,277.453552 
	C280.906677,287.288696 259.930725,283.693756 248.911026,269.401367 
	C246.713943,266.551788 245.580658,262.424927 245.157593,258.748840 
	C243.792725,246.889999 245.299988,235.340363 254.399002,226.756302 
	C258.012817,223.347000 263.482788,220.783279 268.423584,220.092010 
	C293.061951,216.644836 307.770111,231.357758 305.098846,254.690338 
	C301.862152,255.381424 299.310974,255.837082 296.741943,255.987564 
	C290.577454,256.348633 284.404602,256.566345 278.235107,256.841888 
M289.584869,243.976166 
	C289.308411,243.298798 289.031982,242.621429 288.207489,241.592072 
	C285.694733,235.882568 281.233063,233.640045 275.130035,233.967377 
	C268.428528,234.326782 264.481903,238.581680 261.352661,244.342575 
	C268.068542,244.556992 274.783752,244.884720 281.500702,244.927170 
	C284.007812,244.943024 286.519165,244.293015 289.008331,244.015869 
	C289.008331,244.015869 288.938385,243.998276 289.584869,243.976166 
z"/>
<path fill="#CBD5E1" opacity="1.000000" stroke="none"
	d="
M191.988251,280.976654 
	C187.595276,285.030518 182.576248,282.577423 177.434662,281.709106 
	C177.065262,269.719635 177.032013,258.365631 176.998779,247.011627 
	C177.157501,235.725571 184.205612,226.594604 195.094482,222.703735 
	C215.414688,215.442841 231.864197,227.889038 234.588898,245.857849 
	C234.114700,257.354614 234.043732,268.283173 234.050003,279.211700 
	C234.050354,279.827850 234.686035,280.443604 235.026031,281.059540 
	C230.617050,284.961365 225.622299,282.578491 220.502563,281.746704 
	C220.113327,272.001160 220.109833,262.890503 219.951797,253.782516 
	C219.913071,251.550781 219.369019,249.327805 219.057281,247.100800 
	C217.163040,244.061035 215.578552,240.762360 213.303741,238.040665 
	C209.659836,233.680878 200.247543,233.900345 196.611923,238.235748 
	C194.937607,240.232346 193.633316,242.539261 191.777298,245.355438 
	C191.292984,257.341888 191.185211,268.678284 191.130127,280.014954 
	C191.128571,280.334137 191.689560,280.656036 191.988251,280.976654 
z"/>
<path opacity="0.000000" stroke="none"
	d="
M120.644707,258.057739
	C118.999763,250.491348 118.505188,243.599716 125.374207,238.403900
	C131.353088,233.881378 139.276230,232.958923 145.907104,240.511993
	C150.797577,246.082626 151.366913,256.314697 146.750473,261.589844
	C138.632187,270.866455 125.482040,269.487488 120.644707,258.057739
z"/>
</svg>